<svg width="225" height="108" viewBox="0 0 225 108" fill="none" xmlns="http://www.w3.org/2000/svg">
<path d="M0 79.5C0 65.969 10.969 55 24.5 55H128.5C142.031 55 153 65.969 153 79.5C153 93.031 142.031 104 128.5 104H24.5C10.969 104 0 93.031 0 79.5Z" fill="#0D171D"/>
<path d="M31.88 87V73H37.64C38.88 73 39.94 73.2 40.82 73.6C41.7133 74 42.4 74.5733 42.88 75.32C43.36 76.0667 43.6 76.9533 43.6 77.98C43.6 79.0067 43.36 79.8933 42.88 80.64C42.4 81.3733 41.7133 81.94 40.82 82.34C39.94 82.7267 38.88 82.92 37.64 82.92H33.32L34.48 81.74V87H31.88ZM41.04 87L37.5 81.92H40.28L43.84 87H41.04ZM34.48 82.02L33.32 80.78H37.52C38.6667 80.78 39.5267 80.5333 40.1 80.04C40.6867 79.5467 40.98 78.86 40.98 77.98C40.98 77.0867 40.6867 76.4 40.1 75.92C39.5267 75.44 38.6667 75.2 37.52 75.2H33.32L34.48 73.92V82.02ZM46.7089 87V76.32H49.2089V87H46.7089ZM47.9689 74.56C47.5022 74.56 47.1156 74.4133 46.8089 74.12C46.5156 73.8267 46.3689 73.4733 46.3689 73.06C46.3689 72.6333 46.5156 72.28 46.8089 72C47.1156 71.7067 47.5022 71.56 47.9689 71.56C48.4356 71.56 48.8156 71.7 49.1089 71.98C49.4156 72.2467 49.5689 72.5867 49.5689 73C49.5689 73.44 49.4222 73.8133 49.1289 74.12C48.8356 74.4133 48.4489 74.56 47.9689 74.56ZM57.8302 87.14C56.7102 87.14 55.7102 86.9067 54.8302 86.44C53.9635 85.96 53.2835 85.3067 52.7902 84.48C52.2968 83.6533 52.0502 82.7133 52.0502 81.66C52.0502 80.5933 52.2968 79.6533 52.7902 78.84C53.2835 78.0133 53.9635 77.3667 54.8302 76.9C55.7102 76.4333 56.7102 76.2 57.8302 76.2C58.8702 76.2 59.7835 76.4133 60.5702 76.84C61.3702 77.2533 61.9768 77.8667 62.3902 78.68L60.4702 79.8C60.1502 79.2933 59.7568 78.92 59.2902 78.68C58.8368 78.44 58.3435 78.32 57.8102 78.32C57.1968 78.32 56.6435 78.4533 56.1502 78.72C55.6568 78.9867 55.2702 79.3733 54.9902 79.88C54.7102 80.3733 54.5702 80.9667 54.5702 81.66C54.5702 82.3533 54.7102 82.9533 54.9902 83.46C55.2702 83.9533 55.6568 84.3333 56.1502 84.6C56.6435 84.8667 57.1968 85 57.8102 85C58.3435 85 58.8368 84.88 59.2902 84.64C59.7568 84.4 60.1502 84.0267 60.4702 83.52L62.3902 84.64C61.9768 85.44 61.3702 86.06 60.5702 86.5C59.7835 86.9267 58.8702 87.14 57.8302 87.14ZM66.9336 84.62L66.9936 81.48L72.5736 76.32H75.5736L70.8336 81.08L69.5136 82.18L66.9336 84.62ZM64.8936 87V72.16H67.3936V87H64.8936ZM72.9536 87L69.0536 82.18L70.6336 80.18L75.9936 87H72.9536ZM90.5958 87V84.84L90.4558 84.38V80.6C90.4558 79.8667 90.2358 79.3 89.7958 78.9C89.3558 78.4867 88.6891 78.28 87.7958 78.28C87.1958 78.28 86.6024 78.3733 86.0158 78.56C85.4424 78.7467 84.9558 79.0067 84.5558 79.34L83.5758 77.52C84.1491 77.08 84.8291 76.7533 85.6158 76.54C86.4158 76.3133 87.2424 76.2 88.0958 76.2C89.6424 76.2 90.8358 76.5733 91.6758 77.32C92.5291 78.0533 92.9558 79.1933 92.9558 80.74V87H90.5958ZM87.2358 87.14C86.4358 87.14 85.7358 87.0067 85.1358 86.74C84.5358 86.46 84.0691 86.08 83.7358 85.6C83.4158 85.1067 83.2558 84.5533 83.2558 83.94C83.2558 83.34 83.3958 82.8 83.6758 82.32C83.9691 81.84 84.4424 81.46 85.0958 81.18C85.7491 80.9 86.6158 80.76 87.6958 80.76H90.7958V82.42H87.8758C87.0224 82.42 86.4491 82.56 86.1558 82.84C85.8624 83.1067 85.7158 83.44 85.7158 83.84C85.7158 84.2933 85.8958 84.6533 86.2558 84.92C86.6158 85.1867 87.1158 85.32 87.7558 85.32C88.3691 85.32 88.9158 85.18 89.3958 84.9C89.8891 84.62 90.2424 84.2067 90.4558 83.66L90.8758 85.16C90.6358 85.7867 90.2024 86.2733 89.5758 86.62C88.9624 86.9667 88.1824 87.14 87.2358 87.14ZM102.664 76.2C103.518 76.2 104.278 76.3667 104.944 76.7C105.624 77.0333 106.158 77.5467 106.544 78.24C106.931 78.92 107.124 79.8 107.124 80.88V87H104.624V81.2C104.624 80.2533 104.398 79.5467 103.944 79.08C103.504 78.6133 102.884 78.38 102.084 78.38C101.498 78.38 100.978 78.5 100.524 78.74C100.071 78.98 99.7176 79.34 99.4642 79.82C99.2242 80.2867 99.1042 80.88 99.1042 81.6V87H96.6042V76.32H98.9842V79.2L98.5642 78.32C98.9376 77.64 99.4776 77.12 100.184 76.76C100.904 76.3867 101.731 76.2 102.664 76.2ZM115.275 87.14C114.248 87.14 113.322 86.9133 112.495 86.46C111.682 85.9933 111.042 85.3533 110.575 84.54C110.108 83.7267 109.875 82.7667 109.875 81.66C109.875 80.5533 110.108 79.5933 110.575 78.78C111.042 77.9667 111.682 77.3333 112.495 76.88C113.322 76.4267 114.248 76.2 115.275 76.2C116.168 76.2 116.968 76.4 117.675 76.8C118.382 77.1867 118.942 77.78 119.355 78.58C119.768 79.38 119.975 80.4067 119.975 81.66C119.975 82.9 119.775 83.9267 119.375 84.74C118.975 85.54 118.422 86.14 117.715 86.54C117.008 86.94 116.195 87.14 115.275 87.14ZM115.575 85C116.175 85 116.708 84.8667 117.175 84.6C117.655 84.3333 118.035 83.9467 118.315 83.44C118.608 82.9333 118.755 82.34 118.755 81.66C118.755 80.9667 118.608 80.3733 118.315 79.88C118.035 79.3733 117.655 78.9867 117.175 78.72C116.708 78.4533 116.175 78.32 115.575 78.32C114.975 78.32 114.435 78.4533 113.955 78.72C113.488 78.9867 113.108 79.3733 112.815 79.88C112.535 80.3733 112.395 80.9667 112.395 81.66C112.395 82.34 112.535 82.9333 112.815 83.44C113.108 83.9467 113.488 84.3333 113.955 84.6C114.435 84.8667 114.975 85 115.575 85ZM118.815 87V84.48L118.915 81.64L118.715 78.8V72.16H121.195V87H118.815Z" fill="#FAFAFA"/>
<g clip-path="url(#clip0_30_861)">
<path d="M105.975 20.7509C113.168 9.29048 128.302 5.8127 139.777 12.983L204.229 53.2569C215.704 60.4272 219.174 75.5304 211.981 86.9908C204.787 98.4511 189.654 101.929 178.179 94.7586L113.727 54.4847C102.252 47.3144 98.7814 32.2112 105.975 20.7509Z" fill="#DAF836"/>
<path d="M128.148 44.6288L135.963 32.1783L137.868 33.369L137.613 45.8631L136.615 45.24L147.681 39.5007L149.586 40.6914L141.789 53.1531L139.599 51.7843L145.241 42.7554L145.704 43.0448L136.378 47.7907L135.345 47.1453L135.482 36.6571L136.016 36.991L130.356 46.0087L128.148 44.6288ZM149.512 58.1521C148.538 57.5438 147.802 56.7947 147.303 55.9049C146.811 55.0032 146.576 54.0475 146.598 53.0378C146.62 52.0282 146.925 51.0549 147.513 50.1182C148.109 49.1696 148.853 48.4709 149.746 48.0221C150.647 47.5614 151.608 47.3609 152.628 47.4207C153.648 47.4805 154.645 47.8146 155.619 48.4229C156.604 49.0387 157.347 49.7915 157.846 50.6813C158.357 51.5786 158.6 52.5224 158.573 53.5128C158.558 54.5106 158.249 55.4897 157.647 56.4502C157.059 57.387 156.314 58.0857 155.414 58.5463C154.525 59.0144 153.56 59.2208 152.521 59.1655C151.5 59.1057 150.497 58.7679 149.512 58.1521ZM150.707 56.249C151.253 56.5902 151.814 56.7758 152.39 56.8058C152.966 56.8357 153.515 56.6995 154.035 56.3973C154.567 56.1025 155.023 55.6528 155.403 55.048C155.79 54.4314 155.996 53.8259 156.022 53.2313C156.068 52.6324 155.951 52.0808 155.673 51.5765C155.394 51.0723 154.988 50.6533 154.453 50.3194C153.907 49.9782 153.346 49.7926 152.77 49.7626C152.205 49.7401 151.657 49.8763 151.125 50.1711C150.6 50.454 150.144 50.9038 149.757 51.5204C149.378 52.1251 149.171 52.7307 149.138 53.3371C149.104 53.9434 149.221 54.495 149.487 54.9918C149.766 55.4961 150.172 55.9151 150.707 56.249ZM157.168 62.7625L163.129 53.2646L165.249 54.5888L163.607 57.2034L163.838 56.2828C164.525 55.8206 165.275 55.6126 166.089 55.659C166.915 55.7127 167.785 56.0252 168.699 56.5965L167.371 58.7131C167.291 58.63 167.209 58.5625 167.126 58.5106C167.05 58.4468 166.971 58.3889 166.888 58.337C166.045 57.8103 165.218 57.6401 164.406 57.8265C163.603 58.0011 162.896 58.5745 162.285 59.5469L159.394 64.1536L157.168 62.7625ZM168.781 70.193C167.737 69.5402 167.097 68.7689 166.862 67.8792C166.634 66.9776 166.852 65.9992 167.514 64.9438L172.862 56.4241L175.088 57.8152L169.774 66.2815C169.491 66.7321 169.384 67.1524 169.453 67.5424C169.535 67.9398 169.783 68.2683 170.199 68.5279C170.697 68.8395 171.195 68.9688 171.691 68.9156L171.32 70.8881C170.925 70.9383 170.504 70.8981 170.057 70.7674C169.61 70.6367 169.185 70.4453 168.781 70.193ZM168.816 59.3934L169.933 57.6148L176.273 61.5765L175.156 63.3551L168.816 59.3934ZM171.567 76.7374C171.104 76.4481 170.689 76.0817 170.323 75.6382C169.957 75.1947 169.705 74.7402 169.567 74.2745L171.485 73.1946C171.584 73.5371 171.739 73.8567 171.949 74.1534C172.16 74.45 172.413 74.691 172.71 74.8765C173.114 75.1287 173.503 75.232 173.879 75.1862C174.255 75.1404 174.699 74.9471 175.21 74.6064L176.544 73.7063L176.889 73.5508L185.756 67.4035L187.893 68.7389L176.999 76.2196C176.256 76.7456 175.57 77.1011 174.941 77.2861C174.325 77.4786 173.739 77.5168 173.183 77.4009C172.64 77.2924 172.101 77.0713 171.567 76.7374ZM175.558 74.7244L177.44 62.2066L179.755 63.6533L178.099 74.034L175.558 74.7244Z" fill="#111111"/>
</g>
<defs>
<clipPath id="clip0_30_861">
<path d="M105.975 20.7509C113.168 9.29048 128.302 5.8127 139.777 12.983L204.229 53.2569C215.704 60.4272 219.174 75.5304 211.981 86.9908C204.787 98.4511 189.654 101.929 178.179 94.7586L113.727 54.4847C102.252 47.3144 98.7814 32.2112 105.975 20.7509Z" fill="white"/>
</clipPath>
</defs>
</svg>
