<svg width="1408" height="173" viewBox="0 0 1408 173" fill="none" xmlns="http://www.w3.org/2000/svg">
<path d="M796.421 130.363C796.421 116.596 807.581 105.437 821.347 105.437H985.348C999.114 105.437 1010.27 116.596 1010.27 130.363C1010.27 144.129 999.114 155.288 985.348 155.288H821.347C807.581 155.288 796.421 144.129 796.421 130.363Z" fill="#0D171D"/>
<path d="M820.395 138.437V123.737H826.443C827.745 123.737 828.858 123.947 829.782 124.367C830.72 124.787 831.441 125.389 831.945 126.173C832.449 126.957 832.701 127.888 832.701 128.966C832.701 130.044 832.449 130.975 831.945 131.759C831.441 132.529 830.72 133.124 829.782 133.544C828.858 133.95 827.745 134.153 826.443 134.153H821.907L823.125 132.914V138.437H820.395ZM830.013 138.437L826.296 133.103H829.215L832.953 138.437H830.013ZM823.125 133.208L821.907 131.906H826.317C827.521 131.906 828.424 131.647 829.026 131.129C829.642 130.611 829.95 129.89 829.95 128.966C829.95 128.028 829.642 127.307 829.026 126.803C828.424 126.299 827.521 126.047 826.317 126.047H821.907L823.125 124.703V133.208ZM835.944 138.437V127.223H838.569V138.437H835.944ZM837.267 125.375C836.777 125.375 836.371 125.221 836.049 124.913C835.741 124.605 835.587 124.234 835.587 123.8C835.587 123.352 835.741 122.981 836.049 122.687C836.371 122.379 836.777 122.225 837.267 122.225C837.757 122.225 838.156 122.372 838.464 122.666C838.786 122.946 838.947 123.303 838.947 123.737C838.947 124.199 838.793 124.591 838.485 124.913C838.177 125.221 837.771 125.375 837.267 125.375ZM847.599 138.584C846.423 138.584 845.373 138.339 844.449 137.849C843.539 137.345 842.825 136.659 842.307 135.791C841.789 134.923 841.53 133.936 841.53 132.83C841.53 131.71 841.789 130.723 842.307 129.869C842.825 129.001 843.539 128.322 844.449 127.832C845.373 127.342 846.423 127.097 847.599 127.097C848.691 127.097 849.65 127.321 850.476 127.769C851.316 128.203 851.953 128.847 852.387 129.701L850.371 130.877C850.035 130.345 849.622 129.953 849.132 129.701C848.656 129.449 848.138 129.323 847.578 129.323C846.934 129.323 846.353 129.463 845.835 129.743C845.317 130.023 844.911 130.429 844.617 130.961C844.323 131.479 844.176 132.102 844.176 132.83C844.176 133.558 844.323 134.188 844.617 134.72C844.911 135.238 845.317 135.637 845.835 135.917C846.353 136.197 846.934 136.337 847.578 136.337C848.138 136.337 848.656 136.211 849.132 135.959C849.622 135.707 850.035 135.315 850.371 134.783L852.387 135.959C851.953 136.799 851.316 137.45 850.476 137.912C849.65 138.36 848.691 138.584 847.599 138.584ZM857.136 135.938L857.199 132.641L863.058 127.223H866.208L861.231 132.221L859.845 133.376L857.136 135.938ZM854.994 138.437V122.855H857.619V138.437H854.994ZM863.457 138.437L859.362 133.376L861.021 131.276L866.649 138.437H863.457ZM881.937 138.437V136.169L881.79 135.686V131.717C881.79 130.947 881.559 130.352 881.097 129.932C880.635 129.498 879.935 129.281 878.997 129.281C878.367 129.281 877.744 129.379 877.128 129.575C876.526 129.771 876.015 130.044 875.595 130.394L874.566 128.483C875.168 128.021 875.882 127.678 876.708 127.454C877.548 127.216 878.416 127.097 879.312 127.097C880.936 127.097 882.189 127.489 883.071 128.273C883.967 129.043 884.415 130.24 884.415 131.864V138.437H881.937ZM878.409 138.584C877.569 138.584 876.834 138.444 876.204 138.164C875.574 137.87 875.084 137.471 874.734 136.967C874.398 136.449 874.23 135.868 874.23 135.224C874.23 134.594 874.377 134.027 874.671 133.523C874.979 133.019 875.476 132.62 876.162 132.326C876.848 132.032 877.758 131.885 878.892 131.885H882.147V133.628H879.081C878.185 133.628 877.583 133.775 877.275 134.069C876.967 134.349 876.813 134.699 876.813 135.119C876.813 135.595 877.002 135.973 877.38 136.253C877.758 136.533 878.283 136.673 878.955 136.673C879.599 136.673 880.173 136.526 880.677 136.232C881.195 135.938 881.566 135.504 881.79 134.93L882.231 136.505C881.979 137.163 881.524 137.674 880.866 138.038C880.222 138.402 879.403 138.584 878.409 138.584ZM894.587 127.097C895.483 127.097 896.281 127.272 896.981 127.622C897.695 127.972 898.255 128.511 898.661 129.239C899.067 129.953 899.27 130.877 899.27 132.011V138.437H896.645V132.347C896.645 131.353 896.407 130.611 895.931 130.121C895.469 129.631 894.818 129.386 893.978 129.386C893.362 129.386 892.816 129.512 892.34 129.764C891.864 130.016 891.493 130.394 891.227 130.898C890.975 131.388 890.849 132.011 890.849 132.767V138.437H888.224V127.223H890.723V130.247L890.282 129.323C890.674 128.609 891.241 128.063 891.983 127.685C892.739 127.293 893.607 127.097 894.587 127.097ZM907.806 138.584C906.728 138.584 905.755 138.346 904.887 137.87C904.033 137.38 903.361 136.708 902.871 135.854C902.381 135 902.136 133.992 902.136 132.83C902.136 131.668 902.381 130.66 902.871 129.806C903.361 128.952 904.033 128.287 904.887 127.811C905.755 127.335 906.728 127.097 907.806 127.097C908.744 127.097 909.584 127.307 910.326 127.727C911.068 128.133 911.656 128.756 912.09 129.596C912.524 130.436 912.741 131.514 912.741 132.83C912.741 134.132 912.531 135.21 912.111 136.064C911.691 136.904 911.11 137.534 910.368 137.954C909.626 138.374 908.772 138.584 907.806 138.584ZM908.121 136.337C908.751 136.337 909.311 136.197 909.801 135.917C910.305 135.637 910.704 135.231 910.998 134.699C911.306 134.167 911.46 133.544 911.46 132.83C911.46 132.102 911.306 131.479 910.998 130.961C910.704 130.429 910.305 130.023 909.801 129.743C909.311 129.463 908.751 129.323 908.121 129.323C907.491 129.323 906.924 129.463 906.42 129.743C905.93 130.023 905.531 130.429 905.223 130.961C904.929 131.479 904.782 132.102 904.782 132.83C904.782 133.544 904.929 134.167 905.223 134.699C905.531 135.231 905.93 135.637 906.42 135.917C906.924 136.197 907.491 136.337 908.121 136.337ZM911.523 138.437V135.791L911.628 132.809L911.418 129.827V122.855H914.022V138.437H911.523ZM924.413 138.437V123.737H926.66L933.086 134.468H931.91L938.231 123.737H940.478L940.499 138.437H937.916L937.895 127.79H938.441L933.065 136.757H931.847L926.387 127.79H927.017V138.437H924.413ZM949.698 138.584C948.55 138.584 947.528 138.339 946.632 137.849C945.736 137.345 945.029 136.659 944.511 135.791C943.993 134.923 943.734 133.936 943.734 132.83C943.734 131.71 943.993 130.723 944.511 129.869C945.029 129.001 945.736 128.322 946.632 127.832C947.528 127.342 948.55 127.097 949.698 127.097C950.86 127.097 951.889 127.342 952.785 127.832C953.695 128.322 954.402 128.994 954.906 129.848C955.424 130.702 955.683 131.696 955.683 132.83C955.683 133.936 955.424 134.923 954.906 135.791C954.402 136.659 953.695 137.345 952.785 137.849C951.889 138.339 950.86 138.584 949.698 138.584ZM949.698 136.337C950.342 136.337 950.916 136.197 951.42 135.917C951.924 135.637 952.316 135.231 952.596 134.699C952.89 134.167 953.037 133.544 953.037 132.83C953.037 132.102 952.89 131.479 952.596 130.961C952.316 130.429 951.924 130.023 951.42 129.743C950.916 129.463 950.349 129.323 949.719 129.323C949.075 129.323 948.501 129.463 947.997 129.743C947.507 130.023 947.115 130.429 946.821 130.961C946.527 131.479 946.38 132.102 946.38 132.83C946.38 133.544 946.527 134.167 946.821 134.699C947.115 135.231 947.507 135.637 947.997 135.917C948.501 136.197 949.068 136.337 949.698 136.337ZM958.633 138.437V127.223H961.132V130.31L960.838 129.407C961.174 128.651 961.699 128.077 962.413 127.685C963.141 127.293 964.044 127.097 965.122 127.097V129.596C965.01 129.568 964.905 129.554 964.807 129.554C964.709 129.54 964.611 129.533 964.513 129.533C963.519 129.533 962.728 129.827 962.14 130.415C961.552 130.989 961.258 131.85 961.258 132.998V138.437H958.633ZM972.42 138.584C971.188 138.584 970.236 138.269 969.564 137.639C968.892 136.995 968.556 136.05 968.556 134.804V124.745H971.181V134.741C971.181 135.273 971.314 135.686 971.58 135.98C971.86 136.274 972.245 136.421 972.735 136.421C973.323 136.421 973.813 136.267 974.205 135.959L974.94 137.828C974.632 138.08 974.254 138.269 973.806 138.395C973.358 138.521 972.896 138.584 972.42 138.584ZM966.708 129.407V127.307H974.184V129.407H966.708ZM978.258 142.658C977.712 142.658 977.166 142.567 976.62 142.385C976.074 142.203 975.619 141.951 975.255 141.629L976.305 139.697C976.571 139.935 976.872 140.124 977.208 140.264C977.544 140.404 977.887 140.474 978.237 140.474C978.713 140.474 979.098 140.355 979.392 140.117C979.686 139.879 979.959 139.48 980.211 138.92L980.862 137.45L981.072 137.135L985.314 127.223H987.834L982.584 139.34C982.234 140.18 981.842 140.845 981.408 141.335C980.988 141.825 980.512 142.168 979.98 142.364C979.462 142.56 978.888 142.658 978.258 142.658ZM980.568 138.836L975.507 127.223H978.237L982.353 136.904L980.568 138.836Z" fill="#FAFAFA"/>
<path d="M254.794 130.363C254.794 116.596 265.954 105.437 279.72 105.437H437.725C451.492 105.437 462.651 116.596 462.651 130.363C462.651 144.129 451.492 155.288 437.725 155.288H279.72C265.954 155.288 254.794 144.129 254.794 130.363Z" fill="#A1D737"/>
<path d="M283.057 138.647C282.119 138.647 281.251 138.465 280.453 138.101C279.669 137.737 279.025 137.212 278.521 136.526L280.075 134.657C280.481 135.217 280.922 135.637 281.398 135.917C281.888 136.197 282.42 136.337 282.994 136.337C284.52 136.337 285.283 135.434 285.283 133.628V126.026H280.054V123.737H288.013V133.481C288.013 135.217 287.586 136.512 286.732 137.366C285.892 138.22 284.667 138.647 283.057 138.647ZM296.777 138.584C295.825 138.584 294.985 138.409 294.257 138.059C293.529 137.695 292.962 137.149 292.556 136.421C292.15 135.679 291.947 134.748 291.947 133.628V127.223H294.572V133.271C294.572 134.279 294.796 135.035 295.244 135.539C295.706 136.029 296.357 136.274 297.197 136.274C297.813 136.274 298.345 136.148 298.793 135.896C299.255 135.644 299.612 135.266 299.864 134.762C300.13 134.258 300.263 133.635 300.263 132.893V127.223H302.888V138.437H300.389V135.413L300.83 136.337C300.452 137.065 299.899 137.625 299.171 138.017C298.443 138.395 297.645 138.584 296.777 138.584ZM310.23 138.584C309.292 138.584 308.389 138.465 307.521 138.227C306.667 137.975 305.988 137.674 305.484 137.324L306.492 135.329C306.996 135.651 307.598 135.917 308.298 136.127C308.998 136.337 309.698 136.442 310.398 136.442C311.224 136.442 311.819 136.33 312.183 136.106C312.561 135.882 312.75 135.581 312.75 135.203C312.75 134.895 312.624 134.664 312.372 134.51C312.12 134.342 311.791 134.216 311.385 134.132C310.979 134.048 310.524 133.971 310.02 133.901C309.53 133.831 309.033 133.74 308.529 133.628C308.039 133.502 307.591 133.327 307.185 133.103C306.779 132.865 306.45 132.55 306.198 132.158C305.946 131.766 305.82 131.248 305.82 130.604C305.82 129.89 306.023 129.274 306.429 128.756C306.835 128.224 307.402 127.818 308.13 127.538C308.872 127.244 309.747 127.097 310.755 127.097C311.511 127.097 312.274 127.181 313.044 127.349C313.814 127.517 314.451 127.755 314.955 128.063L313.947 130.058C313.415 129.736 312.876 129.519 312.33 129.407C311.798 129.281 311.266 129.218 310.734 129.218C309.936 129.218 309.341 129.337 308.949 129.575C308.571 129.813 308.382 130.114 308.382 130.478C308.382 130.814 308.508 131.066 308.76 131.234C309.012 131.402 309.341 131.535 309.747 131.633C310.153 131.731 310.601 131.815 311.091 131.885C311.595 131.941 312.092 132.032 312.582 132.158C313.072 132.284 313.52 132.459 313.926 132.683C314.346 132.893 314.682 133.194 314.934 133.586C315.186 133.978 315.312 134.489 315.312 135.119C315.312 135.819 315.102 136.428 314.682 136.946C314.276 137.464 313.695 137.87 312.939 138.164C312.183 138.444 311.28 138.584 310.23 138.584ZM322.233 138.584C321.001 138.584 320.049 138.269 319.377 137.639C318.705 136.995 318.369 136.05 318.369 134.804V124.745H320.994V134.741C320.994 135.273 321.127 135.686 321.393 135.98C321.673 136.274 322.058 136.421 322.548 136.421C323.136 136.421 323.626 136.267 324.018 135.959L324.753 137.828C324.445 138.08 324.067 138.269 323.619 138.395C323.171 138.521 322.709 138.584 322.233 138.584ZM316.521 129.407V127.307H323.997V129.407H316.521ZM327.353 138.437V127.223H329.978V138.437H327.353ZM328.676 125.375C328.186 125.375 327.78 125.221 327.458 124.913C327.15 124.605 326.996 124.234 326.996 123.8C326.996 123.352 327.15 122.981 327.458 122.687C327.78 122.379 328.186 122.225 328.676 122.225C329.166 122.225 329.565 122.372 329.873 122.666C330.195 122.946 330.356 123.303 330.356 123.737C330.356 124.199 330.202 124.591 329.894 124.913C329.586 125.221 329.18 125.375 328.676 125.375ZM340.226 127.097C341.122 127.097 341.92 127.272 342.62 127.622C343.334 127.972 343.894 128.511 344.3 129.239C344.706 129.953 344.909 130.877 344.909 132.011V138.437H342.284V132.347C342.284 131.353 342.046 130.611 341.57 130.121C341.108 129.631 340.457 129.386 339.617 129.386C339.001 129.386 338.455 129.512 337.979 129.764C337.503 130.016 337.132 130.394 336.866 130.898C336.614 131.388 336.488 132.011 336.488 132.767V138.437H333.863V127.223H336.362V130.247L335.921 129.323C336.313 128.609 336.88 128.063 337.622 127.685C338.378 127.293 339.246 127.097 340.226 127.097ZM355.175 138.437V123.737H361.223C362.525 123.737 363.638 123.947 364.562 124.367C365.5 124.787 366.221 125.389 366.725 126.173C367.229 126.957 367.481 127.888 367.481 128.966C367.481 130.044 367.229 130.975 366.725 131.759C366.221 132.529 365.5 133.124 364.562 133.544C363.638 133.95 362.525 134.153 361.223 134.153H356.687L357.905 132.914V138.437H355.175ZM364.793 138.437L361.076 133.103H363.995L367.733 138.437H364.793ZM357.905 133.208L356.687 131.906H361.097C362.301 131.906 363.204 131.647 363.806 131.129C364.422 130.611 364.73 129.89 364.73 128.966C364.73 128.028 364.422 127.307 363.806 126.803C363.204 126.299 362.301 126.047 361.097 126.047H356.687L357.905 124.703V133.208ZM375.763 138.584C374.615 138.584 373.593 138.339 372.697 137.849C371.801 137.345 371.094 136.659 370.576 135.791C370.058 134.923 369.799 133.936 369.799 132.83C369.799 131.71 370.058 130.723 370.576 129.869C371.094 129.001 371.801 128.322 372.697 127.832C373.593 127.342 374.615 127.097 375.763 127.097C376.925 127.097 377.954 127.342 378.85 127.832C379.76 128.322 380.467 128.994 380.971 129.848C381.489 130.702 381.748 131.696 381.748 132.83C381.748 133.936 381.489 134.923 380.971 135.791C380.467 136.659 379.76 137.345 378.85 137.849C377.954 138.339 376.925 138.584 375.763 138.584ZM375.763 136.337C376.407 136.337 376.981 136.197 377.485 135.917C377.989 135.637 378.381 135.231 378.661 134.699C378.955 134.167 379.102 133.544 379.102 132.83C379.102 132.102 378.955 131.479 378.661 130.961C378.381 130.429 377.989 130.023 377.485 129.743C376.981 129.463 376.414 129.323 375.784 129.323C375.14 129.323 374.566 129.463 374.062 129.743C373.572 130.023 373.18 130.429 372.886 130.961C372.592 131.479 372.445 132.102 372.445 132.83C372.445 133.544 372.592 134.167 372.886 134.699C373.18 135.231 373.572 135.637 374.062 135.917C374.566 136.197 375.133 136.337 375.763 136.337ZM384.698 138.437V127.223H387.323V138.437H384.698ZM386.021 125.375C385.531 125.375 385.125 125.221 384.803 124.913C384.495 124.605 384.341 124.234 384.341 123.8C384.341 123.352 384.495 122.981 384.803 122.687C385.125 122.379 385.531 122.225 386.021 122.225C386.511 122.225 386.91 122.372 387.218 122.666C387.54 122.946 387.701 123.303 387.701 123.737C387.701 124.199 387.547 124.591 387.239 124.913C386.931 125.221 386.525 125.375 386.021 125.375ZM391.208 138.437V122.855H393.833V138.437H391.208ZM404.628 138.437V136.169L404.481 135.686V131.717C404.481 130.947 404.25 130.352 403.788 129.932C403.326 129.498 402.626 129.281 401.688 129.281C401.058 129.281 400.435 129.379 399.819 129.575C399.217 129.771 398.706 130.044 398.286 130.394L397.257 128.483C397.859 128.021 398.573 127.678 399.399 127.454C400.239 127.216 401.107 127.097 402.003 127.097C403.627 127.097 404.88 127.489 405.762 128.273C406.658 129.043 407.106 130.24 407.106 131.864V138.437H404.628ZM401.1 138.584C400.26 138.584 399.525 138.444 398.895 138.164C398.265 137.87 397.775 137.471 397.425 136.967C397.089 136.449 396.921 135.868 396.921 135.224C396.921 134.594 397.068 134.027 397.362 133.523C397.67 133.019 398.167 132.62 398.853 132.326C399.539 132.032 400.449 131.885 401.583 131.885H404.838V133.628H401.772C400.876 133.628 400.274 133.775 399.966 134.069C399.658 134.349 399.504 134.699 399.504 135.119C399.504 135.595 399.693 135.973 400.071 136.253C400.449 136.533 400.974 136.673 401.646 136.673C402.29 136.673 402.864 136.526 403.368 136.232C403.886 135.938 404.257 135.504 404.481 134.93L404.922 136.505C404.67 137.163 404.215 137.674 403.557 138.038C402.913 138.402 402.094 138.584 401.1 138.584ZM417.278 127.097C418.174 127.097 418.972 127.272 419.672 127.622C420.386 127.972 420.946 128.511 421.352 129.239C421.758 129.953 421.961 130.877 421.961 132.011V138.437H419.336V132.347C419.336 131.353 419.098 130.611 418.622 130.121C418.16 129.631 417.509 129.386 416.669 129.386C416.053 129.386 415.507 129.512 415.031 129.764C414.555 130.016 414.184 130.394 413.918 130.898C413.666 131.388 413.54 132.011 413.54 132.767V138.437H410.915V127.223H413.414V130.247L412.973 129.323C413.365 128.609 413.932 128.063 414.674 127.685C415.43 127.293 416.298 127.097 417.278 127.097ZM430.497 138.584C429.419 138.584 428.446 138.346 427.578 137.87C426.724 137.38 426.052 136.708 425.562 135.854C425.072 135 424.827 133.992 424.827 132.83C424.827 131.668 425.072 130.66 425.562 129.806C426.052 128.952 426.724 128.287 427.578 127.811C428.446 127.335 429.419 127.097 430.497 127.097C431.435 127.097 432.275 127.307 433.017 127.727C433.759 128.133 434.347 128.756 434.781 129.596C435.215 130.436 435.432 131.514 435.432 132.83C435.432 134.132 435.222 135.21 434.802 136.064C434.382 136.904 433.801 137.534 433.059 137.954C432.317 138.374 431.463 138.584 430.497 138.584ZM430.812 136.337C431.442 136.337 432.002 136.197 432.492 135.917C432.996 135.637 433.395 135.231 433.689 134.699C433.997 134.167 434.151 133.544 434.151 132.83C434.151 132.102 433.997 131.479 433.689 130.961C433.395 130.429 432.996 130.023 432.492 129.743C432.002 129.463 431.442 129.323 430.812 129.323C430.182 129.323 429.615 129.463 429.111 129.743C428.621 130.023 428.222 130.429 427.914 130.961C427.62 131.479 427.473 132.102 427.473 132.83C427.473 133.544 427.62 134.167 427.914 134.699C428.222 135.231 428.621 135.637 429.111 135.917C429.615 136.197 430.182 136.337 430.812 136.337ZM434.214 138.437V135.791L434.319 132.809L434.109 129.827V122.855H436.713V138.437H434.214Z" fill="#111111"/>
<path d="M1340.64 63.9621C1347.77 75.7469 1343.99 91.0662 1332.19 98.1786L1236.36 155.946C1224.56 163.058 1209.21 159.27 1202.07 147.485C1194.94 135.701 1198.72 120.381 1210.52 113.269L1306.35 55.5017C1318.15 48.3894 1333.5 52.1772 1340.64 63.9621Z" fill="#DAF836"/>
<path d="M1311.66 71.8492C1312.67 71.242 1313.7 70.9096 1314.74 70.8517C1315.78 70.813 1316.75 71.0312 1317.64 71.5063C1318.54 71.9814 1319.27 72.6919 1319.84 73.638C1320.42 74.596 1320.71 75.574 1320.71 76.572C1320.72 77.5818 1320.46 78.5313 1319.93 79.4202C1319.39 80.3163 1318.62 81.068 1317.61 81.6751C1316.68 82.2388 1315.74 82.5423 1314.8 82.5855C1313.86 82.6479 1312.98 82.4259 1312.17 81.9194L1313.28 79.8727C1313.85 80.1543 1314.4 80.2764 1314.95 80.239C1315.49 80.2089 1316 80.0492 1316.48 79.7601C1317.03 79.4277 1317.46 79.008 1317.75 78.501C1318.05 77.9941 1318.19 77.4372 1318.17 76.8304C1318.15 76.2355 1317.95 75.6267 1317.58 75.004C1317.2 74.3813 1316.75 73.9182 1316.22 73.615C1315.7 73.3236 1315.15 73.1919 1314.56 73.2198C1313.97 73.2477 1313.4 73.4279 1312.85 73.7604C1312.37 74.0495 1311.99 74.4247 1311.71 74.886C1311.42 75.3545 1311.27 75.903 1311.26 76.5315L1308.92 76.5664C1308.86 75.6238 1309.07 74.7381 1309.55 73.9092C1310.02 73.0996 1310.73 72.4129 1311.66 71.8492ZM1305.83 88.7774C1305.06 89.24 1304.29 89.5022 1303.51 89.5642C1302.72 89.6334 1301.96 89.4615 1301.23 89.0483C1300.52 88.6472 1299.86 87.9616 1299.28 86.9916L1295.95 81.4948L1298.2 80.1396L1301.35 85.349C1301.86 86.1993 1302.45 86.7111 1303.11 86.8845C1303.76 87.0652 1304.45 86.9387 1305.17 86.505C1305.7 86.187 1306.1 85.7973 1306.37 85.3361C1306.65 84.8748 1306.77 84.3599 1306.74 83.7915C1306.7 83.2422 1306.49 82.6443 1306.1 81.9976L1303.16 77.1475L1305.41 75.7923L1313.48 89.1211L1311.23 90.4763L1307.4 84.1532L1308.37 84.6508C1308.4 85.464 1308.2 86.2237 1307.76 86.9301C1307.31 87.6557 1306.67 88.2715 1305.83 88.7774ZM1286.8 87.0078L1287.98 88.9478L1288.35 89.2851L1290.41 92.6801C1290.81 93.3388 1291.31 93.7285 1291.93 93.8493C1292.55 93.982 1293.26 93.8063 1294.06 93.322C1294.6 92.9968 1295.08 92.5913 1295.51 92.1057C1295.92 91.6272 1296.22 91.1299 1296.4 90.6137L1298.27 91.7171C1297.99 92.4231 1297.56 93.0851 1296.97 93.7031C1296.37 94.3404 1295.69 94.8903 1294.92 95.3528C1293.53 96.1912 1292.26 96.5027 1291.1 96.2874C1289.93 96.0913 1288.93 95.2987 1288.08 93.9096L1284.68 88.287L1286.8 87.0078ZM1289.75 85.0607C1290.47 84.6271 1291.17 84.3674 1291.85 84.2817C1292.54 84.2079 1293.17 84.2963 1293.73 84.5467C1294.29 84.8163 1294.73 85.2266 1295.07 85.7775C1295.39 86.3164 1295.56 86.8772 1295.57 87.4601C1295.57 88.0503 1295.35 88.6481 1294.91 89.2538C1294.48 89.8594 1293.77 90.4549 1292.8 91.0404L1290.02 92.7207L1289.11 91.2298L1291.74 89.647C1292.51 89.1844 1292.95 88.7479 1293.06 88.3374C1293.18 87.9389 1293.13 87.56 1292.91 87.2007C1292.66 86.7936 1292.3 86.5678 1291.84 86.5234C1291.37 86.4791 1290.84 86.6303 1290.27 86.9772C1289.72 87.3097 1289.3 87.7318 1289.02 88.2435C1288.73 88.7624 1288.64 89.3251 1288.74 89.9318L1287.55 88.8122C1287.43 88.1192 1287.55 87.4472 1287.93 86.7962C1288.29 86.1524 1288.9 85.5739 1289.75 85.0607ZM1281.42 90.2533L1287.23 99.8458L1285.09 101.136L1283.49 98.4952L1284.21 99.1159C1284.31 99.936 1284.16 100.698 1283.75 101.402C1283.33 102.113 1282.66 102.747 1281.73 103.303L1280.44 101.166C1280.55 101.132 1280.65 101.09 1280.73 101.039C1280.82 101.001 1280.91 100.956 1280.99 100.905C1281.84 100.392 1282.37 99.7323 1282.57 98.9258C1282.78 98.1313 1282.58 97.243 1281.99 96.261L1279.17 91.6085L1281.42 90.2533ZM1268.34 98.1339L1269.52 100.074L1269.89 100.411L1271.95 103.806C1272.35 104.465 1272.86 104.855 1273.47 104.975C1274.09 105.108 1274.8 104.932 1275.6 104.448C1276.14 104.123 1276.63 103.717 1277.05 103.232C1277.47 102.753 1277.76 102.256 1277.94 101.74L1279.81 102.843C1279.54 103.549 1279.1 104.211 1278.51 104.829C1277.91 105.466 1277.23 106.016 1276.47 106.479C1275.07 107.317 1273.8 107.629 1272.64 107.414C1271.47 107.217 1270.47 106.425 1269.63 105.036L1266.22 99.4131L1268.34 98.1339ZM1271.29 96.1868C1272.01 95.7531 1272.71 95.4935 1273.4 95.4077C1274.09 95.334 1274.71 95.4223 1275.27 95.6728C1275.83 95.9424 1276.27 96.3527 1276.61 96.9035C1276.93 97.4424 1277.1 98.0033 1277.11 98.5862C1277.11 99.1763 1276.89 99.7742 1276.45 100.38C1276.02 100.985 1275.32 101.581 1274.35 102.166L1271.56 103.847L1270.65 102.356L1273.28 100.773C1274.05 100.31 1274.49 99.874 1274.6 99.4635C1274.72 99.065 1274.67 98.6861 1274.45 98.3268C1274.2 97.9196 1273.85 97.6939 1273.38 97.6495C1272.91 97.6051 1272.39 97.7564 1271.81 98.1033C1271.26 98.4358 1270.84 98.8579 1270.56 99.3695C1270.27 99.8884 1270.18 100.451 1270.29 101.058L1269.09 99.9383C1268.97 99.2453 1269.09 98.5733 1269.47 97.9223C1269.83 97.2784 1270.44 96.6999 1271.29 96.1868ZM1258.46 103.92C1259.47 103.313 1260.49 102.981 1261.54 102.923C1262.58 102.884 1263.54 103.102 1264.44 103.578C1265.33 104.053 1266.06 104.763 1266.64 105.709C1267.22 106.667 1267.51 107.645 1267.51 108.643C1267.51 109.653 1267.25 110.602 1266.73 111.491C1266.19 112.388 1265.42 113.139 1264.41 113.746C1263.47 114.31 1262.54 114.613 1261.6 114.657C1260.65 114.719 1259.77 114.497 1258.96 113.991L1260.08 111.944C1260.64 112.226 1261.2 112.348 1261.75 112.31C1262.29 112.28 1262.79 112.12 1263.27 111.831C1263.83 111.499 1264.25 111.079 1264.55 110.572C1264.85 110.065 1264.99 109.508 1264.96 108.902C1264.95 108.307 1264.75 107.698 1264.37 107.075C1263.99 106.452 1263.54 105.989 1263.01 105.686C1262.49 105.395 1261.94 105.263 1261.35 105.291C1260.76 105.319 1260.19 105.499 1259.64 105.832C1259.16 106.121 1258.78 106.496 1258.51 106.957C1258.22 107.426 1258.07 107.974 1258.05 108.603L1255.72 108.638C1255.65 107.695 1255.86 106.809 1256.34 105.98C1256.82 105.171 1257.52 104.484 1258.46 103.92ZM1248.3 110.044C1249.36 109.408 1250.33 109.186 1251.24 109.378C1252.14 109.582 1252.92 110.217 1253.57 111.283L1258.78 119.887L1256.53 121.242L1251.35 112.692C1251.08 112.237 1250.75 111.952 1250.37 111.838C1249.98 111.731 1249.57 111.804 1249.15 112.057C1248.65 112.36 1248.31 112.745 1248.13 113.211L1246.53 111.992C1246.67 111.617 1246.89 111.26 1247.21 110.921C1247.53 110.582 1247.89 110.29 1248.3 110.044ZM1257.95 114.945L1259.03 116.741L1252.63 120.601L1251.54 118.805L1257.95 114.945ZM1239.72 115.217C1240.78 114.574 1241.85 114.22 1242.9 114.155C1243.96 114.109 1244.93 114.324 1245.82 114.799C1246.7 115.281 1247.43 115.995 1248 116.941C1248.58 117.899 1248.89 118.87 1248.91 119.853C1248.93 120.856 1248.69 121.791 1248.2 122.658C1247.7 123.533 1246.97 124.259 1246.01 124.837C1245.07 125.401 1244.12 125.7 1243.14 125.733C1242.16 125.767 1241.24 125.539 1240.37 125.05C1239.5 124.56 1238.76 123.812 1238.15 122.807C1238.09 122.711 1238.03 122.599 1237.97 122.472C1237.9 122.353 1237.84 122.235 1237.78 122.12L1245.79 117.296L1246.69 118.787L1239.87 122.896L1240.47 121.897C1240.79 122.455 1241.2 122.872 1241.7 123.146C1242.19 123.421 1242.72 123.552 1243.28 123.538C1243.84 123.532 1244.38 123.366 1244.92 123.041C1245.47 122.709 1245.89 122.296 1246.16 121.804C1246.42 121.318 1246.54 120.788 1246.52 120.212C1246.5 119.656 1246.31 119.09 1245.96 118.515L1245.74 118.156C1245.4 117.581 1244.96 117.152 1244.42 116.868C1243.89 116.584 1243.31 116.466 1242.69 116.516C1242.06 116.565 1241.44 116.778 1240.82 117.154C1240.28 117.479 1239.84 117.856 1239.51 118.284C1239.18 118.711 1238.96 119.206 1238.84 119.768L1236.8 119.111C1236.92 118.348 1237.23 117.63 1237.73 116.957C1238.21 116.303 1238.88 115.723 1239.72 115.217ZM1232.74 119.593L1238.55 129.185L1236.41 130.476L1234.81 127.835L1235.53 128.456C1235.64 129.276 1235.48 130.038 1235.08 130.742C1234.65 131.453 1233.98 132.087 1233.06 132.643L1231.77 130.506C1231.88 130.472 1231.97 130.429 1232.06 130.379C1232.15 130.34 1232.24 130.296 1232.32 130.245C1233.17 129.732 1233.7 129.072 1233.89 128.266C1234.1 127.471 1233.91 126.583 1233.31 125.601L1230.5 120.948L1232.74 119.593ZM1221.77 126.036C1222.57 125.551 1223.41 125.187 1224.28 124.943C1225.14 124.717 1225.87 124.624 1226.49 124.663L1226.66 126.89C1226.06 126.875 1225.41 126.958 1224.7 127.14C1223.99 127.322 1223.34 127.593 1222.74 127.955C1222.03 128.381 1221.58 128.784 1221.38 129.164C1221.17 129.55 1221.17 129.905 1221.36 130.229C1221.52 130.492 1221.75 130.625 1222.05 130.626C1222.35 130.64 1222.7 130.578 1223.09 130.44C1223.48 130.302 1223.91 130.133 1224.38 129.933C1224.83 129.74 1225.3 129.561 1225.79 129.397C1226.28 129.252 1226.75 129.17 1227.22 129.152C1227.69 129.146 1228.13 129.246 1228.55 129.451C1228.97 129.656 1229.35 130.034 1229.68 130.585C1230.05 131.196 1230.2 131.828 1230.12 132.48C1230.04 133.145 1229.77 133.785 1229.29 134.4C1228.81 135.035 1228.13 135.612 1227.27 136.133C1226.62 136.523 1225.93 136.845 1225.18 137.099C1224.43 137.353 1223.76 137.478 1223.17 137.475L1223 135.248C1223.63 135.249 1224.2 135.156 1224.73 134.97C1225.25 134.803 1225.73 134.582 1226.19 134.308C1226.87 133.896 1227.32 133.487 1227.53 133.081C1227.73 132.682 1227.74 132.327 1227.55 132.016C1227.38 131.728 1227.14 131.578 1226.84 131.564C1226.53 131.55 1226.18 131.606 1225.78 131.732C1225.39 131.858 1224.96 132.017 1224.5 132.211C1224.04 132.423 1223.57 132.602 1223.08 132.747C1222.6 132.892 1222.13 132.973 1221.66 132.991C1221.19 133.029 1220.75 132.945 1220.33 132.739C1219.91 132.534 1219.54 132.162 1219.21 131.623C1218.85 131.024 1218.71 130.395 1218.81 129.735C1218.89 129.083 1219.17 128.435 1219.67 127.794C1220.17 127.164 1220.87 126.578 1221.77 126.036Z" fill="#111111"/>
<path d="M0 130.363C0 116.596 11.1597 105.437 24.9258 105.437H193.923C207.69 105.437 218.849 116.596 218.849 130.363C218.849 144.129 207.69 155.288 193.923 155.288H24.9259C11.1597 155.288 0 144.129 0 130.363Z" fill="#0D171D"/>
<path d="M29.943 138.584C28.711 138.584 27.759 138.269 27.087 137.639C26.415 136.995 26.079 136.05 26.079 134.804V124.745H28.704V134.741C28.704 135.273 28.837 135.686 29.103 135.98C29.383 136.274 29.768 136.421 30.258 136.421C30.846 136.421 31.336 136.267 31.728 135.959L32.463 137.828C32.155 138.08 31.777 138.269 31.329 138.395C30.881 138.521 30.419 138.584 29.943 138.584ZM24.231 129.407V127.307H31.707V129.407H24.231ZM41.4254 127.097C42.3214 127.097 43.1194 127.272 43.8194 127.622C44.5334 127.972 45.0934 128.511 45.4994 129.239C45.9054 129.953 46.1084 130.877 46.1084 132.011V138.437H43.4834V132.347C43.4834 131.353 43.2454 130.611 42.7694 130.121C42.3074 129.631 41.6564 129.386 40.8164 129.386C40.2004 129.386 39.6544 129.512 39.1784 129.764C38.7024 130.016 38.3314 130.394 38.0654 130.898C37.8134 131.388 37.6874 132.011 37.6874 132.767V138.437H35.0624V122.855H37.6874V130.247L37.1204 129.323C37.5124 128.609 38.0794 128.063 38.8214 127.685C39.5774 127.293 40.4454 127.097 41.4254 127.097ZM55.1699 138.584C53.9239 138.584 52.8319 138.339 51.8939 137.849C50.9699 137.345 50.2489 136.659 49.7309 135.791C49.2269 134.923 48.9749 133.936 48.9749 132.83C48.9749 131.71 49.2199 130.723 49.7099 129.869C50.2139 129.001 50.8999 128.322 51.7679 127.832C52.6499 127.342 53.6509 127.097 54.7709 127.097C55.8629 127.097 56.8359 127.335 57.6899 127.811C58.5439 128.287 59.2159 128.959 59.7059 129.827C60.1959 130.695 60.4409 131.717 60.4409 132.893C60.4409 133.005 60.4339 133.131 60.4199 133.271C60.4199 133.411 60.4129 133.544 60.3989 133.67H51.0539V131.927H59.0129L57.9839 132.473C57.9979 131.829 57.8649 131.262 57.5849 130.772C57.3049 130.282 56.9199 129.897 56.4299 129.617C55.9539 129.337 55.4009 129.197 54.7709 129.197C54.1269 129.197 53.5599 129.337 53.0699 129.617C52.5939 129.897 52.2159 130.289 51.9359 130.793C51.6699 131.283 51.5369 131.864 51.5369 132.536V132.956C51.5369 133.628 51.6909 134.223 51.9989 134.741C52.3069 135.259 52.7409 135.658 53.3009 135.938C53.8609 136.218 54.5049 136.358 55.2329 136.358C55.8629 136.358 56.4299 136.26 56.9339 136.064C57.4379 135.868 57.8859 135.56 58.2779 135.14L59.6849 136.757C59.1809 137.345 58.5439 137.8 57.7739 138.122C57.0179 138.43 56.1499 138.584 55.1699 138.584ZM76.5551 138.437V136.169L76.4081 135.686V131.717C76.4081 130.947 76.1771 130.352 75.7151 129.932C75.2531 129.498 74.5531 129.281 73.6151 129.281C72.9851 129.281 72.3621 129.379 71.7461 129.575C71.1441 129.771 70.6331 130.044 70.2131 130.394L69.1841 128.483C69.7861 128.021 70.5001 127.678 71.3261 127.454C72.1661 127.216 73.0341 127.097 73.9301 127.097C75.5541 127.097 76.8071 127.489 77.6891 128.273C78.5851 129.043 79.0331 130.24 79.0331 131.864V138.437H76.5551ZM73.0271 138.584C72.1871 138.584 71.4521 138.444 70.8221 138.164C70.1921 137.87 69.7021 137.471 69.3521 136.967C69.0161 136.449 68.8481 135.868 68.8481 135.224C68.8481 134.594 68.9951 134.027 69.2891 133.523C69.5971 133.019 70.0941 132.62 70.7801 132.326C71.4661 132.032 72.3761 131.885 73.5101 131.885H76.7651V133.628H73.6991C72.8031 133.628 72.2011 133.775 71.8931 134.069C71.5851 134.349 71.4311 134.699 71.4311 135.119C71.4311 135.595 71.6201 135.973 71.9981 136.253C72.3761 136.533 72.9011 136.673 73.5731 136.673C74.2171 136.673 74.7911 136.526 75.2951 136.232C75.8131 135.938 76.1841 135.504 76.4081 134.93L76.8491 136.505C76.5971 137.163 76.1421 137.674 75.4841 138.038C74.8401 138.402 74.0211 138.584 73.0271 138.584ZM87.6084 138.584C86.5304 138.584 85.5574 138.346 84.6894 137.87C83.8354 137.38 83.1634 136.708 82.6734 135.854C82.1834 135 81.9384 133.992 81.9384 132.83C81.9384 131.668 82.1834 130.66 82.6734 129.806C83.1634 128.952 83.8354 128.287 84.6894 127.811C85.5574 127.335 86.5304 127.097 87.6084 127.097C88.5464 127.097 89.3864 127.307 90.1284 127.727C90.8704 128.133 91.4584 128.756 91.8924 129.596C92.3264 130.436 92.5434 131.514 92.5434 132.83C92.5434 134.132 92.3334 135.21 91.9134 136.064C91.4934 136.904 90.9124 137.534 90.1704 137.954C89.4284 138.374 88.5744 138.584 87.6084 138.584ZM87.9234 136.337C88.5534 136.337 89.1134 136.197 89.6034 135.917C90.1074 135.637 90.5064 135.231 90.8004 134.699C91.1084 134.167 91.2624 133.544 91.2624 132.83C91.2624 132.102 91.1084 131.479 90.8004 130.961C90.5064 130.429 90.1074 130.023 89.6034 129.743C89.1134 129.463 88.5534 129.323 87.9234 129.323C87.2934 129.323 86.7264 129.463 86.2224 129.743C85.7324 130.023 85.3334 130.429 85.0254 130.961C84.7314 131.479 84.5844 132.102 84.5844 132.83C84.5844 133.544 84.7314 134.167 85.0254 134.699C85.3334 135.231 85.7324 135.637 86.2224 135.917C86.7264 136.197 87.2934 136.337 87.9234 136.337ZM91.3254 138.437V135.791L91.4304 132.809L91.2204 129.827V122.855H93.8244V138.437H91.3254ZM100.701 138.437L95.8924 127.223H98.6224L102.759 137.114H101.415L105.699 127.223H108.219L103.41 138.437H100.701ZM115.263 138.584C114.017 138.584 112.925 138.339 111.987 137.849C111.063 137.345 110.342 136.659 109.824 135.791C109.32 134.923 109.068 133.936 109.068 132.83C109.068 131.71 109.313 130.723 109.803 129.869C110.307 129.001 110.993 128.322 111.861 127.832C112.743 127.342 113.744 127.097 114.864 127.097C115.956 127.097 116.929 127.335 117.783 127.811C118.637 128.287 119.309 128.959 119.799 129.827C120.289 130.695 120.534 131.717 120.534 132.893C120.534 133.005 120.527 133.131 120.513 133.271C120.513 133.411 120.506 133.544 120.492 133.67H111.147V131.927H119.106L118.077 132.473C118.091 131.829 117.958 131.262 117.678 130.772C117.398 130.282 117.013 129.897 116.523 129.617C116.047 129.337 115.494 129.197 114.864 129.197C114.22 129.197 113.653 129.337 113.163 129.617C112.687 129.897 112.309 130.289 112.029 130.793C111.763 131.283 111.63 131.864 111.63 132.536V132.956C111.63 133.628 111.784 134.223 112.092 134.741C112.4 135.259 112.834 135.658 113.394 135.938C113.954 136.218 114.598 136.358 115.326 136.358C115.956 136.358 116.523 136.26 117.027 136.064C117.531 135.868 117.979 135.56 118.371 135.14L119.778 136.757C119.274 137.345 118.637 137.8 117.867 138.122C117.111 138.43 116.243 138.584 115.263 138.584ZM129.859 127.097C130.755 127.097 131.553 127.272 132.253 127.622C132.967 127.972 133.527 128.511 133.933 129.239C134.339 129.953 134.542 130.877 134.542 132.011V138.437H131.917V132.347C131.917 131.353 131.679 130.611 131.203 130.121C130.741 129.631 130.09 129.386 129.25 129.386C128.634 129.386 128.088 129.512 127.612 129.764C127.136 130.016 126.765 130.394 126.499 130.898C126.247 131.388 126.121 132.011 126.121 132.767V138.437H123.496V127.223H125.995V130.247L125.554 129.323C125.946 128.609 126.513 128.063 127.255 127.685C128.011 127.293 128.879 127.097 129.859 127.097ZM142.533 138.584C141.301 138.584 140.349 138.269 139.677 137.639C139.005 136.995 138.669 136.05 138.669 134.804V124.745H141.294V134.741C141.294 135.273 141.427 135.686 141.693 135.98C141.973 136.274 142.358 136.421 142.848 136.421C143.436 136.421 143.926 136.267 144.318 135.959L145.053 137.828C144.745 138.08 144.367 138.269 143.919 138.395C143.471 138.521 143.009 138.584 142.533 138.584ZM136.821 129.407V127.307H144.297V129.407H136.821ZM152.398 138.584C151.446 138.584 150.606 138.409 149.878 138.059C149.15 137.695 148.583 137.149 148.177 136.421C147.771 135.679 147.568 134.748 147.568 133.628V127.223H150.193V133.271C150.193 134.279 150.417 135.035 150.865 135.539C151.327 136.029 151.978 136.274 152.818 136.274C153.434 136.274 153.966 136.148 154.414 135.896C154.876 135.644 155.233 135.266 155.485 134.762C155.751 134.258 155.884 133.635 155.884 132.893V127.223H158.509V138.437H156.01V135.413L156.451 136.337C156.073 137.065 155.52 137.625 154.792 138.017C154.064 138.395 153.266 138.584 152.398 138.584ZM162.386 138.437V127.223H164.885V130.31L164.591 129.407C164.927 128.651 165.452 128.077 166.166 127.685C166.894 127.293 167.797 127.097 168.875 127.097V129.596C168.763 129.568 168.658 129.554 168.56 129.554C168.462 129.54 168.364 129.533 168.266 129.533C167.272 129.533 166.481 129.827 165.893 130.415C165.305 130.989 165.011 131.85 165.011 132.998V138.437H162.386ZM176.71 138.584C175.464 138.584 174.372 138.339 173.434 137.849C172.51 137.345 171.789 136.659 171.271 135.791C170.767 134.923 170.515 133.936 170.515 132.83C170.515 131.71 170.76 130.723 171.25 129.869C171.754 129.001 172.44 128.322 173.308 127.832C174.19 127.342 175.191 127.097 176.311 127.097C177.403 127.097 178.376 127.335 179.23 127.811C180.084 128.287 180.756 128.959 181.246 129.827C181.736 130.695 181.981 131.717 181.981 132.893C181.981 133.005 181.974 133.131 181.96 133.271C181.96 133.411 181.953 133.544 181.939 133.67H172.594V131.927H180.553L179.524 132.473C179.538 131.829 179.405 131.262 179.125 130.772C178.845 130.282 178.46 129.897 177.97 129.617C177.494 129.337 176.941 129.197 176.311 129.197C175.667 129.197 175.1 129.337 174.61 129.617C174.134 129.897 173.756 130.289 173.476 130.793C173.21 131.283 173.077 131.864 173.077 132.536V132.956C173.077 133.628 173.231 134.223 173.539 134.741C173.847 135.259 174.281 135.658 174.841 135.938C175.401 136.218 176.045 136.358 176.773 136.358C177.403 136.358 177.97 136.26 178.474 136.064C178.978 135.868 179.426 135.56 179.818 135.14L181.225 136.757C180.721 137.345 180.084 137.8 179.314 138.122C178.558 138.43 177.69 138.584 176.71 138.584ZM188.408 138.584C187.47 138.584 186.567 138.465 185.699 138.227C184.845 137.975 184.166 137.674 183.662 137.324L184.67 135.329C185.174 135.651 185.776 135.917 186.476 136.127C187.176 136.337 187.876 136.442 188.576 136.442C189.402 136.442 189.997 136.33 190.361 136.106C190.739 135.882 190.928 135.581 190.928 135.203C190.928 134.895 190.802 134.664 190.55 134.51C190.298 134.342 189.969 134.216 189.563 134.132C189.157 134.048 188.702 133.971 188.198 133.901C187.708 133.831 187.211 133.74 186.707 133.628C186.217 133.502 185.769 133.327 185.363 133.103C184.957 132.865 184.628 132.55 184.376 132.158C184.124 131.766 183.998 131.248 183.998 130.604C183.998 129.89 184.201 129.274 184.607 128.756C185.013 128.224 185.58 127.818 186.308 127.538C187.05 127.244 187.925 127.097 188.933 127.097C189.689 127.097 190.452 127.181 191.222 127.349C191.992 127.517 192.629 127.755 193.133 128.063L192.125 130.058C191.593 129.736 191.054 129.519 190.508 129.407C189.976 129.281 189.444 129.218 188.912 129.218C188.114 129.218 187.519 129.337 187.127 129.575C186.749 129.813 186.56 130.114 186.56 130.478C186.56 130.814 186.686 131.066 186.938 131.234C187.19 131.402 187.519 131.535 187.925 131.633C188.331 131.731 188.779 131.815 189.269 131.885C189.773 131.941 190.27 132.032 190.76 132.158C191.25 132.284 191.698 132.459 192.104 132.683C192.524 132.893 192.86 133.194 193.112 133.586C193.364 133.978 193.49 134.489 193.49 135.119C193.49 135.819 193.28 136.428 192.86 136.946C192.454 137.464 191.873 137.87 191.117 138.164C190.361 138.444 189.458 138.584 188.408 138.584Z" fill="#FAFAFA"/>
<path d="M366.045 78.2809C370.089 65.1184 384.041 57.7126 397.209 61.7396L529.146 102.089C542.314 106.116 549.71 120.051 545.666 133.213C541.623 146.376 527.67 153.782 514.502 149.755L382.565 109.405C369.397 105.378 362.001 91.4434 366.045 78.2809Z" fill="#0D171D"/>
<path d="M397.514 96.4953C396.617 96.221 395.788 95.8431 395.028 95.3618C394.286 94.8711 393.725 94.3848 393.345 93.9029L394.895 92.2906C395.283 92.7458 395.78 93.1762 396.388 93.5816C396.996 93.9871 397.634 94.2922 398.304 94.4969C399.093 94.7384 399.695 94.8054 400.109 94.6977C400.536 94.5941 400.806 94.3617 400.917 94.0004C401.007 93.7059 400.954 93.4483 400.759 93.2274C400.567 92.9931 400.289 92.7764 399.926 92.5774C399.562 92.3784 399.15 92.1717 398.688 91.9574C398.24 91.7472 397.792 91.5148 397.343 91.2604C396.911 90.9966 396.534 90.6983 396.212 90.3655C395.893 90.0192 395.671 89.6219 395.545 89.1735C395.419 88.7251 395.451 88.1931 395.64 87.5775C395.85 86.8949 396.225 86.3655 396.765 85.989C397.31 85.5992 397.971 85.377 398.75 85.3222C399.546 85.2582 400.425 85.3736 401.389 85.6683C402.112 85.8894 402.817 86.1929 403.504 86.5787C404.191 86.9644 404.731 87.3782 405.122 87.8201L403.572 89.4323C403.158 88.9689 402.706 88.6038 402.217 88.3371C401.745 88.0611 401.255 87.8453 400.746 87.6897C399.983 87.4563 399.379 87.396 398.935 87.5089C398.503 87.6259 398.234 87.8583 398.127 88.2063C398.029 88.5275 398.075 88.8052 398.267 89.0395C398.458 89.2738 398.734 89.4971 399.093 89.7095C399.453 89.922 399.857 90.1333 400.305 90.3435C400.77 90.5444 401.219 90.7767 401.65 91.0405C402.082 91.3042 402.459 91.6025 402.781 91.9354C403.121 92.259 403.354 92.645 403.48 93.0934C403.606 93.5418 403.576 94.0671 403.391 94.6693C403.186 95.3385 402.806 95.8592 402.252 96.2315C401.712 96.6079 401.037 96.8261 400.228 96.8861C399.423 96.9326 398.518 96.8024 397.514 96.4953ZM409.495 100.159C408.584 99.8809 407.832 99.468 407.239 98.9205C406.65 98.3596 406.268 97.6719 406.094 96.8573C405.923 96.0292 406.002 95.0799 406.331 94.0093L408.212 87.8867L410.723 88.6544L408.946 94.4357C408.65 95.3993 408.643 96.1875 408.923 96.8003C409.221 97.4038 409.772 97.8283 410.575 98.074C411.164 98.2542 411.71 98.2893 412.212 98.1794C412.728 98.0737 413.18 97.8167 413.569 97.4086C413.972 97.0047 414.282 96.448 414.5 95.7388L416.165 90.3188L418.675 91.0865L415.382 101.806L412.992 101.075L413.88 98.1845L414.03 99.1967C413.455 99.7821 412.762 100.156 411.951 100.317C411.143 100.466 410.325 100.413 409.495 100.159ZM424.99 104.898C424.12 104.632 423.385 104.188 422.786 103.565C422.199 102.947 421.815 102.17 421.634 101.236C421.469 100.293 421.578 99.1993 421.961 97.9547C422.347 96.6967 422.865 95.7276 423.513 95.0475C424.175 94.3715 424.92 93.9479 425.749 93.7768C426.582 93.5923 427.453 93.6393 428.364 93.9177C429.421 94.2412 430.282 94.7532 430.945 95.4539C431.622 96.1587 432.07 96.9909 432.287 97.9505C432.519 98.9143 432.464 99.9515 432.122 101.062C431.781 102.173 431.242 103.07 430.505 103.752C429.786 104.425 428.948 104.864 427.991 105.069C427.048 105.279 426.048 105.222 424.99 104.898ZM417.893 106.834L422.382 92.2203L424.772 92.9511L423.995 95.4804L423.039 98.3064L422.364 101.218L420.403 107.602L417.893 106.834ZM425.369 102.664C425.971 102.849 426.548 102.878 427.099 102.754C427.663 102.634 428.164 102.362 428.601 101.94C429.039 101.517 429.362 100.965 429.572 100.282C429.786 99.5864 429.828 98.9479 429.699 98.3667C429.574 97.7722 429.312 97.2674 428.912 96.8524C428.526 96.4414 428.031 96.1438 427.429 95.9596C426.826 95.7753 426.243 95.7433 425.679 95.8636C425.115 95.9839 424.614 96.2553 424.177 96.6778C423.743 97.087 423.42 97.6395 423.206 98.3354C422.996 99.018 422.954 99.6565 423.079 100.251C423.204 100.846 423.466 101.35 423.866 101.765C424.265 102.18 424.767 102.48 425.369 102.664ZM438.274 108.961C437.083 108.596 436.111 108.043 435.357 107.3C434.622 106.548 434.134 105.682 433.893 104.7C433.666 103.723 433.715 102.706 434.04 101.649C434.369 100.578 434.893 99.7063 435.613 99.0333C436.349 98.351 437.205 97.9025 438.179 97.688C439.166 97.4775 440.195 97.5361 441.266 97.8636C442.311 98.183 443.171 98.695 443.848 99.3998C444.525 100.105 444.97 100.943 445.184 101.917C445.397 102.89 445.332 103.938 444.986 105.062C444.953 105.169 444.91 105.288 444.855 105.417C444.814 105.551 444.768 105.676 444.718 105.793L435.781 103.06L436.293 101.394L443.904 103.721L442.76 103.942C442.963 103.331 443.002 102.75 442.878 102.2C442.754 101.649 442.499 101.169 442.113 100.758C441.74 100.351 441.252 100.055 440.65 99.871C440.034 99.6827 439.45 99.6507 438.9 99.775C438.362 99.9035 437.886 100.168 437.47 100.568C437.072 100.958 436.774 101.475 436.576 102.117L436.453 102.518C436.256 103.161 436.228 103.775 436.371 104.36C436.513 104.945 436.811 105.453 437.264 105.885C437.717 106.316 438.292 106.638 438.988 106.851C439.591 107.036 440.162 107.108 440.701 107.068C441.241 107.028 441.76 106.864 442.258 106.578L443.129 108.535C442.474 108.949 441.731 109.198 440.9 109.281C440.087 109.354 439.212 109.247 438.274 108.961ZM446.19 111.228L449.483 100.508L451.873 101.239L450.967 104.19L450.951 103.241C451.494 102.617 452.165 102.221 452.962 102.055C453.774 101.894 454.695 101.97 455.726 102.286L454.992 104.674C454.893 104.615 454.797 104.571 454.703 104.542C454.613 104.5 454.522 104.465 454.428 104.436C453.477 104.145 452.635 104.195 451.9 104.585C451.169 104.962 450.635 105.699 450.298 106.796L448.7 111.996L446.19 111.228ZM460.847 115.864C459.977 115.598 459.242 115.153 458.642 114.531C458.056 113.912 457.672 113.136 457.49 112.202C457.326 111.259 457.435 110.165 457.817 108.92C458.204 107.662 458.721 106.693 459.37 106.013C460.031 105.337 460.776 104.914 461.605 104.743C462.438 104.558 463.31 104.605 464.22 104.883C465.278 105.207 466.138 105.719 466.802 106.42C467.479 107.124 467.926 107.957 468.144 108.916C468.375 109.88 468.32 110.917 467.979 112.028C467.637 113.139 467.098 114.035 466.362 114.718C465.642 115.391 464.804 115.83 463.848 116.035C462.905 116.244 461.904 116.187 460.847 115.864ZM453.749 117.8L458.239 103.186L460.629 103.917L459.852 106.446L458.896 109.272L458.221 112.184L456.259 118.568L453.749 117.8ZM461.225 113.63C461.828 113.814 462.405 113.844 462.955 113.72C463.52 113.6 464.02 113.328 464.458 112.906C464.895 112.483 465.219 111.931 465.428 111.248C465.642 110.552 465.685 109.914 465.555 109.332C465.431 108.738 465.168 108.233 464.769 107.818C464.382 107.407 463.888 107.11 463.285 106.925C462.683 106.741 462.1 106.709 461.535 106.829C460.971 106.95 460.47 107.221 460.033 107.644C459.6 108.053 459.276 108.605 459.062 109.301C458.853 109.984 458.81 110.622 458.935 111.217C459.06 111.811 459.322 112.316 459.722 112.731C460.122 113.146 460.623 113.446 461.225 113.63ZM473.91 119.859C472.812 119.523 471.907 118.99 471.194 118.26C470.485 117.516 470.01 116.653 469.77 115.672C469.53 114.691 469.572 113.672 469.897 112.615C470.225 111.544 470.763 110.676 471.509 110.011C472.259 109.333 473.135 108.891 474.136 108.684C475.136 108.478 476.186 108.543 477.283 108.878C478.395 109.218 479.307 109.753 480.02 110.484C480.746 111.218 481.225 112.068 481.456 113.031C481.7 113.999 481.656 115.025 481.323 116.109C480.998 117.166 480.461 118.034 479.711 118.712C478.974 119.395 478.096 119.844 477.078 120.059C476.077 120.266 475.021 120.199 473.91 119.859ZM474.57 117.711C475.186 117.899 475.776 117.933 476.34 117.813C476.904 117.693 477.398 117.419 477.822 116.993C478.26 116.57 478.583 116.018 478.793 115.335C479.007 114.639 479.049 114.001 478.92 113.42C478.808 112.829 478.553 112.326 478.153 111.911C477.753 111.496 477.252 111.197 476.65 111.012C476.034 110.824 475.444 110.79 474.88 110.91C474.329 111.035 473.835 111.308 473.397 111.731C472.964 112.14 472.641 112.692 472.427 113.388C472.217 114.071 472.175 114.709 472.3 115.304C472.425 115.898 472.68 116.401 473.067 116.812C473.466 117.227 473.967 117.527 474.57 117.711ZM484.573 122.966L483.93 111.043L486.3 111.768L486.769 122.254L485.644 121.91L492.084 113.536L494.192 114.181L494.721 124.686L493.617 124.349L499.996 115.956L502.225 116.638L494.976 126.148L492.566 125.411L492.005 116.082L492.748 116.309L486.983 123.703L484.573 122.966ZM505.782 129.606C504.59 129.242 503.618 128.688 502.865 127.945C502.129 127.193 501.641 126.327 501.401 125.346C501.174 124.368 501.222 123.351 501.547 122.294C501.876 121.223 502.4 120.352 503.12 119.679C503.857 118.996 504.712 118.548 505.686 118.333C506.673 118.123 507.702 118.181 508.774 118.509C509.818 118.828 510.678 119.34 511.355 120.045C512.032 120.75 512.477 121.589 512.691 122.562C512.905 123.535 512.839 124.583 512.493 125.708C512.461 125.815 512.417 125.933 512.362 126.063C512.321 126.197 512.276 126.322 512.225 126.438L503.289 123.705L503.801 122.039L511.412 124.366L510.267 124.587C510.47 123.976 510.509 123.395 510.385 122.845C510.261 122.295 510.006 121.814 509.62 121.403C509.247 120.996 508.759 120.701 508.157 120.516C507.541 120.328 506.958 120.296 506.407 120.42C505.869 120.549 505.393 120.813 504.977 121.213C504.579 121.603 504.281 122.12 504.084 122.762L503.96 123.164C503.763 123.806 503.735 124.42 503.878 125.005C504.02 125.59 504.318 126.099 504.771 126.53C505.225 126.962 505.799 127.284 506.496 127.497C507.098 127.681 507.669 127.753 508.209 127.713C508.748 127.673 509.267 127.51 509.765 127.223L510.636 129.18C509.981 129.595 509.238 129.843 508.407 129.926C507.594 129.999 506.719 129.893 505.782 129.606ZM513.697 131.873L516.991 121.154L519.38 121.884L518.474 124.835L518.458 123.886C519.001 123.262 519.672 122.867 520.47 122.701C521.281 122.539 522.202 122.616 523.233 122.931L522.499 125.32C522.4 125.26 522.304 125.216 522.21 125.187C522.121 125.145 522.029 125.11 521.935 125.081C520.985 124.791 520.142 124.84 519.407 125.231C518.676 125.607 518.142 126.344 517.805 127.442L516.208 132.641L513.697 131.873Z" fill="#A1D737"/>
<path d="M1408 130.363C1408 144.129 1396.84 155.288 1383.07 155.288H1321C1307.24 155.288 1296.08 144.129 1296.08 130.363C1296.08 116.596 1307.24 105.437 1321 105.437H1383.07C1396.84 105.437 1408 116.596 1408 130.363Z" fill="#A1D737"/>
<path d="M1364.15 136.988L1367.91 125.753L1371.62 136.988H1374.14L1377.94 125.816L1381.6 136.988H1384.43L1379.56 122.288H1376.64L1372.95 133.166L1369.31 122.288H1366.41L1361.54 136.988H1364.15ZM1352.46 133.628C1354.01 133.628 1355.34 133.124 1356.2 132.2V137.87H1358.82V122.288H1356.2V127.958C1356.2 130.205 1354.94 131.339 1353.07 131.339C1351.39 131.339 1350.4 130.373 1350.4 128.378V122.288H1347.78V128.714C1347.78 132.095 1349.77 133.628 1352.46 133.628ZM1338.86 122.141C1335.38 122.141 1332.88 124.535 1332.88 127.895C1332.88 131.255 1335.38 133.628 1338.86 133.628C1342.31 133.628 1344.83 131.255 1344.83 127.895C1344.83 124.535 1342.31 122.141 1338.86 122.141ZM1338.86 124.388C1340.75 124.388 1342.18 125.753 1342.18 127.895C1342.18 130.037 1340.75 131.402 1338.86 131.402C1336.95 131.402 1335.53 130.037 1335.53 127.895C1335.53 125.753 1336.95 124.388 1338.86 124.388ZM1325.79 133.628C1327.6 133.628 1329.34 133.166 1330.54 132.242L1329.51 130.331C1328.67 131.024 1327.36 131.444 1326.1 131.444C1324.24 131.444 1323.31 130.541 1323.31 129.008V128.84H1326.21C1329.61 128.84 1330.87 127.37 1330.87 125.501C1330.87 123.548 1329.25 122.141 1326.69 122.141C1325.01 122.141 1323.79 122.687 1323.16 123.653V122.288H1320.69V128.861C1320.69 132.095 1322.56 133.628 1325.79 133.628ZM1326.15 124.052C1327.49 124.052 1328.29 124.661 1328.29 125.606C1328.29 126.425 1327.81 127.097 1326.02 127.097H1323.31V125.795C1323.75 124.64 1324.87 124.052 1326.15 124.052Z" fill="#111111"/>
<path d="M792.424 130.363C792.424 144.129 781.264 155.288 767.498 155.288H665.455C651.688 155.288 640.529 144.129 640.529 130.363C640.529 116.596 651.688 105.437 665.455 105.437H767.498C781.264 105.437 792.424 116.596 792.424 130.363Z" fill="#A1D737"/>
<path d="M769.529 122.288L762.914 136.988H760.226L753.59 122.288H756.446L762.137 135.539H761.045L766.715 122.288H769.529ZM766.484 125.69L765.749 127.832H757.811L757.076 125.69H766.484ZM737.379 133.628C736.483 133.628 735.692 133.453 735.006 133.103C734.306 132.753 733.76 132.214 733.368 131.486C732.976 130.772 732.78 129.848 732.78 128.714V122.288H735.405V128.378C735.405 129.372 735.622 130.114 736.056 130.604C736.49 131.094 737.113 131.339 737.925 131.339C738.499 131.339 739.01 131.213 739.458 130.961C739.892 130.709 740.235 130.338 740.487 129.848C740.725 129.358 740.844 128.735 740.844 127.979V122.288H743.469V128.378C743.469 129.372 743.686 130.114 744.12 130.604C744.554 131.094 745.177 131.339 745.989 131.339C746.563 131.339 747.074 131.213 747.522 130.961C747.956 130.709 748.299 130.338 748.551 129.848C748.789 129.358 748.908 128.735 748.908 127.979V122.288H751.533V133.502H749.034V130.52L749.475 131.402C749.097 132.13 748.551 132.683 747.837 133.061C747.109 133.439 746.283 133.628 745.359 133.628C744.309 133.628 743.399 133.369 742.629 132.851C741.845 132.333 741.327 131.549 741.075 130.499L742.104 130.856C741.74 131.696 741.138 132.368 740.298 132.872C739.458 133.376 738.485 133.628 737.379 133.628ZM722.076 122.288V124.556L722.223 125.039V129.008C722.223 129.778 722.454 130.373 722.916 130.793C723.378 131.227 724.078 131.444 725.016 131.444C725.646 131.444 726.269 131.346 726.885 131.15C727.487 130.954 727.998 130.681 728.418 130.331L729.447 132.242C728.845 132.704 728.131 133.047 727.305 133.271C726.465 133.509 725.597 133.628 724.701 133.628C723.077 133.628 721.824 133.236 720.942 132.452C720.046 131.682 719.598 130.485 719.598 128.861V122.288H722.076ZM725.604 122.141C726.444 122.141 727.179 122.281 727.809 122.561C728.439 122.855 728.929 123.254 729.279 123.758C729.615 124.276 729.783 124.857 729.783 125.501C729.783 126.131 729.636 126.698 729.342 127.202C729.034 127.706 728.537 128.105 727.851 128.399C727.165 128.693 726.255 128.84 725.121 128.84H721.866V127.097H724.932C725.828 127.097 726.43 126.95 726.738 126.656C727.046 126.376 727.2 126.026 727.2 125.606C727.2 125.13 727.011 124.752 726.633 124.472C726.255 124.192 725.73 124.052 725.058 124.052C724.414 124.052 723.84 124.199 723.336 124.493C722.818 124.787 722.447 125.221 722.223 125.795L721.782 124.22C722.034 123.562 722.489 123.051 723.147 122.687C723.791 122.323 724.61 122.141 725.604 122.141ZM716.713 122.288V123.947L709.804 132.305L709.321 131.402H716.587V133.502H707.221V131.843L714.13 123.485L714.655 124.388H707.032V122.288H716.713ZM704.173 122.288V133.502H701.548V122.288H704.173ZM702.85 135.35C703.34 135.35 703.746 135.504 704.068 135.812C704.376 136.12 704.53 136.491 704.53 136.925C704.53 137.373 704.376 137.744 704.068 138.038C703.746 138.346 703.34 138.5 702.85 138.5C702.36 138.5 701.961 138.353 701.653 138.059C701.331 137.779 701.17 137.422 701.17 136.988C701.17 136.526 701.324 136.134 701.632 135.812C701.94 135.504 702.346 135.35 702.85 135.35ZM691.299 133.628C690.403 133.628 689.605 133.453 688.905 133.103C688.191 132.753 687.631 132.214 687.225 131.486C686.819 130.772 686.616 129.848 686.616 128.714V122.288H689.241V128.378C689.241 129.372 689.479 130.114 689.955 130.604C690.417 131.094 691.068 131.339 691.908 131.339C692.524 131.339 693.07 131.213 693.546 130.961C694.022 130.709 694.393 130.331 694.659 129.827C694.911 129.337 695.037 128.714 695.037 127.958V122.288H697.662V133.502H695.163V130.478L695.604 131.402C695.212 132.116 694.645 132.662 693.903 133.04C693.147 133.432 692.279 133.628 691.299 133.628ZM677.744 118.067C678.78 118.067 679.795 118.207 680.789 118.487C681.769 118.753 682.574 119.145 683.204 119.663L682.028 121.637C681.538 121.231 680.922 120.909 680.18 120.671C679.424 120.419 678.661 120.293 677.891 120.293C676.659 120.293 675.756 120.58 675.182 121.154C674.608 121.714 674.321 122.561 674.321 123.695V125.69L674.111 128.231L674.195 130.772V133.502H671.696V123.989C671.696 121.959 672.214 120.468 673.25 119.516C674.286 118.55 675.784 118.067 677.744 118.067ZM678.08 122.792C679.144 122.792 680.11 123.016 680.978 123.464C681.832 123.926 682.511 124.563 683.015 125.375C683.505 126.187 683.75 127.139 683.75 128.231C683.75 129.309 683.505 130.254 683.015 131.066C682.511 131.878 681.832 132.508 680.978 132.956C680.11 133.404 679.144 133.628 678.08 133.628C677.128 133.628 676.274 133.439 675.518 133.061C674.762 132.683 674.16 132.095 673.712 131.297C673.25 130.499 673.019 129.477 673.019 128.231C673.019 126.985 673.25 125.956 673.712 125.144C674.16 124.346 674.762 123.751 675.518 123.359C676.274 122.981 677.128 122.792 678.08 122.792ZM677.681 125.018C677.023 125.018 676.435 125.151 675.917 125.417C675.399 125.697 675 126.075 674.72 126.551C674.426 127.041 674.279 127.601 674.279 128.231C674.279 128.861 674.426 129.414 674.72 129.89C675 130.38 675.399 130.751 675.917 131.003C676.435 131.269 677.023 131.402 677.681 131.402C678.339 131.402 678.934 131.269 679.466 131.003C679.984 130.751 680.39 130.38 680.684 129.89C680.964 129.414 681.104 128.861 681.104 128.231C681.104 127.601 680.964 127.041 680.684 126.551C680.39 126.075 679.984 125.697 679.466 125.417C678.934 125.151 678.339 125.018 677.681 125.018ZM667.637 127.16L668.141 136.988H665.033L665.558 127.16H667.637ZM666.587 122.141C667.077 122.141 667.483 122.302 667.805 122.624C668.127 122.946 668.288 123.331 668.288 123.779C668.288 124.227 668.127 124.605 667.805 124.913C667.483 125.235 667.077 125.396 666.587 125.396C666.097 125.396 665.698 125.235 665.39 124.913C665.082 124.605 664.928 124.227 664.928 123.779C664.928 123.331 665.082 122.946 665.39 122.624C665.698 122.302 666.097 122.141 666.587 122.141Z" fill="#111111"/>
<path d="M1173.16 130.363C1173.16 144.129 1162 155.288 1148.24 155.288H1074.17C1060.41 155.288 1049.25 144.129 1049.25 130.363C1049.25 116.596 1060.41 105.437 1074.17 105.437H1148.24C1162 105.437 1173.16 116.596 1173.16 130.363Z" fill="#0D171D"/>
<path d="M1147.18 123.288V134.568C1147.18 135.688 1146.86 136.582 1146.2 137.248C1145.54 137.928 1144.59 138.268 1143.36 138.268C1142.92 138.268 1142.51 138.222 1142.12 138.128C1141.72 138.035 1141.39 137.888 1141.12 137.688L1141.8 135.808C1141.99 135.955 1142.2 136.062 1142.44 136.128C1142.68 136.208 1142.93 136.248 1143.18 136.248C1143.7 136.248 1144.1 136.102 1144.36 135.808C1144.63 135.528 1144.76 135.102 1144.76 134.528V133.328L1144.68 132.208V123.288H1147.18ZM1148.94 131.888V133.888H1141.82V131.888H1148.94ZM1135.06 123.148C1136.15 123.148 1137.12 123.382 1137.98 123.848C1138.83 124.328 1139.5 124.982 1140 125.808C1140.49 126.635 1140.74 127.575 1140.74 128.628C1140.74 129.695 1140.49 130.635 1140 131.448C1139.5 132.275 1138.83 132.922 1137.98 133.388C1137.12 133.855 1136.15 134.088 1135.06 134.088C1133.95 134.088 1132.97 133.855 1132.12 133.388C1131.25 132.922 1130.58 132.282 1130.1 131.468C1129.6 130.655 1129.36 129.708 1129.36 128.628C1129.36 127.575 1129.6 126.635 1130.1 125.808C1130.58 124.982 1131.25 124.328 1132.12 123.848C1132.97 123.382 1133.95 123.148 1135.06 123.148ZM1135.06 125.288C1134.44 125.288 1133.9 125.422 1133.42 125.688C1132.94 125.955 1132.56 126.342 1132.3 126.848C1132.02 127.355 1131.88 127.948 1131.88 128.628C1131.88 129.322 1132.02 129.915 1132.3 130.408C1132.56 130.915 1132.94 131.302 1133.42 131.568C1133.9 131.835 1134.44 131.968 1135.04 131.968C1135.65 131.968 1136.2 131.835 1136.68 131.568C1137.14 131.302 1137.52 130.915 1137.8 130.408C1138.08 129.915 1138.22 129.322 1138.22 128.628C1138.22 127.948 1138.08 127.355 1137.8 126.848C1137.52 126.342 1137.14 125.955 1136.68 125.688C1136.2 125.422 1135.66 125.288 1135.06 125.288ZM1126.52 123.288V138.128H1124.02V123.288H1126.52ZM1120.3 123.288V138.128H1117.8V123.288H1120.3ZM1109.28 123.148C1110.38 123.148 1111.35 123.382 1112.2 123.848C1113.06 124.328 1113.73 124.982 1114.22 125.808C1114.72 126.635 1114.96 127.575 1114.96 128.628C1114.96 129.695 1114.72 130.635 1114.22 131.448C1113.73 132.275 1113.06 132.922 1112.2 133.388C1111.35 133.855 1110.38 134.088 1109.28 134.088C1108.18 134.088 1107.2 133.855 1106.34 133.388C1105.48 132.922 1104.8 132.282 1104.32 131.468C1103.83 130.655 1103.58 129.708 1103.58 128.628C1103.58 127.575 1103.83 126.635 1104.32 125.808C1104.8 124.982 1105.48 124.328 1106.34 123.848C1107.2 123.382 1108.18 123.148 1109.28 123.148ZM1109.28 125.288C1108.67 125.288 1108.12 125.422 1107.64 125.688C1107.16 125.955 1106.79 126.342 1106.52 126.848C1106.24 127.355 1106.1 127.948 1106.1 128.628C1106.1 129.322 1106.24 129.915 1106.52 130.408C1106.79 130.915 1107.16 131.302 1107.64 131.568C1108.12 131.835 1108.66 131.968 1109.26 131.968C1109.88 131.968 1110.42 131.835 1110.9 131.568C1111.37 131.302 1111.74 130.915 1112.02 130.408C1112.3 129.915 1112.44 129.322 1112.44 128.628C1112.44 127.948 1112.3 127.355 1112.02 126.848C1111.74 126.342 1111.37 125.955 1110.9 125.688C1110.42 125.422 1109.88 125.288 1109.28 125.288ZM1098.68 123.288L1102.6 133.968H1100.24L1096.88 124.548H1098L1094.48 133.968H1092.38L1088.96 124.548H1090.06L1086.6 133.968H1084.38L1088.32 123.288H1090.72L1093.84 131.628H1093.1L1096.28 123.288H1098.68ZM1079.06 123.148C1079.96 123.148 1080.82 123.262 1081.64 123.488C1082.46 123.728 1083.1 124.015 1083.58 124.348L1082.62 126.248C1082.14 125.942 1081.57 125.688 1080.9 125.488C1080.24 125.288 1079.57 125.188 1078.9 125.188C1078.12 125.188 1077.55 125.295 1077.2 125.508C1076.84 125.722 1076.66 126.008 1076.66 126.368C1076.66 126.662 1076.78 126.882 1077.02 127.028C1077.26 127.188 1077.58 127.308 1077.96 127.388C1078.35 127.468 1078.78 127.542 1079.26 127.608C1079.73 127.675 1080.2 127.762 1080.68 127.868C1081.15 127.988 1081.58 128.155 1081.96 128.368C1082.35 128.595 1082.66 128.895 1082.9 129.268C1083.14 129.642 1083.26 130.135 1083.26 130.748C1083.26 131.428 1083.07 132.015 1082.68 132.508C1082.3 133.015 1081.76 133.402 1081.06 133.668C1080.36 133.948 1079.52 134.088 1078.56 134.088C1077.84 134.088 1077.12 134.008 1076.38 133.848C1075.65 133.688 1075.04 133.462 1074.56 133.168L1075.52 131.268C1076.03 131.575 1076.54 131.782 1077.06 131.888C1077.57 132.008 1078.08 132.068 1078.58 132.068C1079.34 132.068 1079.91 131.955 1080.28 131.728C1080.64 131.502 1080.82 131.215 1080.82 130.868C1080.82 130.548 1080.7 130.308 1080.46 130.148C1080.22 129.988 1079.91 129.862 1079.52 129.768C1079.14 129.675 1078.71 129.595 1078.24 129.528C1077.76 129.475 1077.29 129.388 1076.82 129.268C1076.36 129.148 1075.93 128.982 1075.54 128.768C1075.14 128.568 1074.82 128.282 1074.58 127.908C1074.34 127.535 1074.22 127.048 1074.22 126.448C1074.22 125.782 1074.42 125.202 1074.82 124.708C1075.21 124.215 1075.76 123.828 1076.48 123.548C1077.2 123.282 1078.06 123.148 1079.06 123.148Z" fill="#DAF836"/>
<path d="M56.9307 79.3739C56.9307 65.6078 68.0903 54.4481 81.8565 54.4481H185.899C199.665 54.4481 210.825 65.6078 210.825 79.3739C210.825 93.1401 199.665 104.3 185.899 104.3H81.8565C68.0903 104.3 56.9307 93.1401 56.9307 79.3739Z" fill="#A1D737"/>
<path d="M80.8307 86.4481L87.1307 72.4481H89.6907L96.0107 86.4481H93.2907L87.8707 73.8281H88.9107L83.5107 86.4481H80.8307ZM83.7307 83.2081L84.4307 81.1681H91.9907L92.6907 83.2081H83.7307ZM104.051 75.6481C104.904 75.6481 105.664 75.8148 106.331 76.1481C107.011 76.4814 107.544 76.9948 107.931 77.6881C108.318 78.3681 108.511 79.2481 108.511 80.3281V86.4481H106.011V80.6481C106.011 79.7014 105.784 78.9948 105.331 78.5281C104.891 78.0614 104.271 77.8281 103.471 77.8281C102.884 77.8281 102.364 77.9481 101.911 78.1881C101.458 78.4281 101.104 78.7881 100.851 79.2681C100.611 79.7348 100.491 80.3281 100.491 81.0481V86.4481H97.9911V75.7681H100.371V78.6481L99.9511 77.7681C100.324 77.0881 100.864 76.5681 101.571 76.2081C102.291 75.8348 103.118 75.6481 104.051 75.6481ZM112.123 86.4481V75.7681H114.623V86.4481H112.123ZM113.383 74.0081C112.916 74.0081 112.529 73.8614 112.223 73.5681C111.929 73.2748 111.783 72.9214 111.783 72.5081C111.783 72.0814 111.929 71.7281 112.223 71.4481C112.529 71.1548 112.916 71.0081 113.383 71.0081C113.849 71.0081 114.229 71.1481 114.523 71.4281C114.829 71.6948 114.983 72.0348 114.983 72.4481C114.983 72.8881 114.836 73.2614 114.543 73.5681C114.249 73.8614 113.863 74.0081 113.383 74.0081ZM131.824 75.6481C132.677 75.6481 133.43 75.8148 134.084 76.1481C134.75 76.4814 135.27 76.9948 135.644 77.6881C136.017 78.3681 136.204 79.2481 136.204 80.3281V86.4481H133.704V80.6481C133.704 79.7014 133.497 78.9948 133.084 78.5281C132.67 78.0614 132.077 77.8281 131.304 77.8281C130.757 77.8281 130.27 77.9481 129.844 78.1881C129.43 78.4281 129.104 78.7814 128.864 79.2481C128.637 79.7148 128.524 80.3081 128.524 81.0281V86.4481H126.024V80.6481C126.024 79.7014 125.817 78.9948 125.404 78.5281C124.99 78.0614 124.397 77.8281 123.624 77.8281C123.077 77.8281 122.59 77.9481 122.164 78.1881C121.75 78.4281 121.424 78.7814 121.184 79.2481C120.957 79.7148 120.844 80.3081 120.844 81.0281V86.4481H118.344V75.7681H120.724V78.6081L120.304 77.7681C120.664 77.0748 121.184 76.5481 121.864 76.1881C122.557 75.8281 123.344 75.6481 124.224 75.6481C125.224 75.6481 126.09 75.8948 126.824 76.3881C127.57 76.8814 128.064 77.6281 128.304 78.6281L127.324 78.2881C127.67 77.4881 128.244 76.8481 129.044 76.3681C129.844 75.8881 130.77 75.6481 131.824 75.6481ZM146.418 86.4481V84.2881L146.278 83.8281V80.0481C146.278 79.3148 146.058 78.7481 145.618 78.3481C145.178 77.9348 144.512 77.7281 143.618 77.7281C143.018 77.7281 142.425 77.8214 141.838 78.0081C141.265 78.1948 140.778 78.4548 140.378 78.7881L139.398 76.9681C139.972 76.5281 140.652 76.2014 141.438 75.9881C142.238 75.7614 143.065 75.6481 143.918 75.6481C145.465 75.6481 146.658 76.0214 147.498 76.7681C148.352 77.5014 148.778 78.6414 148.778 80.1881V86.4481H146.418ZM143.058 86.5881C142.258 86.5881 141.558 86.4548 140.958 86.1881C140.358 85.9081 139.892 85.5281 139.558 85.0481C139.238 84.5548 139.078 84.0014 139.078 83.3881C139.078 82.7881 139.218 82.2481 139.498 81.7681C139.792 81.2881 140.265 80.9081 140.918 80.6281C141.572 80.3481 142.438 80.2081 143.518 80.2081H146.618V81.8681H143.698C142.845 81.8681 142.272 82.0081 141.978 82.2881C141.685 82.5548 141.538 82.8881 141.538 83.2881C141.538 83.7414 141.718 84.1014 142.078 84.3681C142.438 84.6348 142.938 84.7681 143.578 84.7681C144.192 84.7681 144.738 84.6281 145.218 84.3481C145.712 84.0681 146.065 83.6548 146.278 83.1081L146.698 84.6081C146.458 85.2348 146.025 85.7214 145.398 86.0681C144.785 86.4148 144.005 86.5881 143.058 86.5881ZM156.447 86.5881C155.274 86.5881 154.367 86.2881 153.727 85.6881C153.087 85.0748 152.767 84.1748 152.767 82.9881V73.4081H155.267V82.9281C155.267 83.4348 155.394 83.8281 155.647 84.1081C155.914 84.3881 156.28 84.5281 156.747 84.5281C157.307 84.5281 157.774 84.3814 158.147 84.0881L158.847 85.8681C158.554 86.1081 158.194 86.2881 157.767 86.4081C157.34 86.5281 156.9 86.5881 156.447 86.5881ZM151.007 77.8481V75.8481H158.127V77.8481H151.007ZM166.012 86.5881C164.825 86.5881 163.785 86.3548 162.892 85.8881C162.012 85.4081 161.325 84.7548 160.832 83.9281C160.352 83.1014 160.112 82.1614 160.112 81.1081C160.112 80.0414 160.345 79.1014 160.812 78.2881C161.292 77.4614 161.945 76.8148 162.772 76.3481C163.612 75.8814 164.565 75.6481 165.632 75.6481C166.672 75.6481 167.599 75.8748 168.412 76.3281C169.225 76.7814 169.865 77.4214 170.332 78.2481C170.799 79.0748 171.032 80.0481 171.032 81.1681C171.032 81.2748 171.025 81.3948 171.012 81.5281C171.012 81.6614 171.005 81.7881 170.992 81.9081H162.092V80.2481H169.672L168.692 80.7681C168.705 80.1548 168.579 79.6148 168.312 79.1481C168.045 78.6814 167.679 78.3148 167.212 78.0481C166.759 77.7814 166.232 77.6481 165.632 77.6481C165.019 77.6481 164.479 77.7814 164.012 78.0481C163.559 78.3148 163.199 78.6881 162.932 79.1681C162.679 79.6348 162.552 80.1881 162.552 80.8281V81.2281C162.552 81.8681 162.699 82.4348 162.992 82.9281C163.285 83.4214 163.699 83.8014 164.232 84.0681C164.765 84.3348 165.379 84.4681 166.072 84.4681C166.672 84.4681 167.212 84.3748 167.692 84.1881C168.172 84.0014 168.599 83.7081 168.972 83.3081L170.312 84.8481C169.832 85.4081 169.225 85.8414 168.492 86.1481C167.772 86.4414 166.945 86.5881 166.012 86.5881ZM178.393 86.5881C177.367 86.5881 176.44 86.3614 175.613 85.9081C174.8 85.4414 174.16 84.8014 173.693 83.9881C173.227 83.1748 172.993 82.2148 172.993 81.1081C172.993 80.0014 173.227 79.0414 173.693 78.2281C174.16 77.4148 174.8 76.7814 175.613 76.3281C176.44 75.8748 177.367 75.6481 178.393 75.6481C179.287 75.6481 180.087 75.8481 180.793 76.2481C181.5 76.6348 182.06 77.2281 182.473 78.0281C182.887 78.8281 183.093 79.8548 183.093 81.1081C183.093 82.3481 182.893 83.3748 182.493 84.1881C182.093 84.9881 181.54 85.5881 180.833 85.9881C180.127 86.3881 179.313 86.5881 178.393 86.5881ZM178.693 84.4481C179.293 84.4481 179.827 84.3148 180.293 84.0481C180.773 83.7814 181.153 83.3948 181.433 82.8881C181.727 82.3814 181.873 81.7881 181.873 81.1081C181.873 80.4148 181.727 79.8214 181.433 79.3281C181.153 78.8214 180.773 78.4348 180.293 78.1681C179.827 77.9014 179.293 77.7681 178.693 77.7681C178.093 77.7681 177.553 77.9014 177.073 78.1681C176.607 78.4348 176.227 78.8214 175.933 79.3281C175.653 79.8214 175.513 80.4148 175.513 81.1081C175.513 81.7881 175.653 82.3814 175.933 82.8881C176.227 83.3948 176.607 83.7814 177.073 84.0481C177.553 84.3148 178.093 84.4481 178.693 84.4481ZM181.933 86.4481V83.9281L182.033 81.0881L181.833 78.2481V71.6081H184.313V86.4481H181.933Z" fill="#111111"/>
<path d="M672.837 57.0221C683.096 66.236 683.924 82.0044 674.687 92.2419L618.545 154.463C609.308 164.701 593.504 165.531 583.245 156.317C572.987 147.103 572.159 131.335 581.396 121.097L637.538 58.8755C646.775 48.6381 662.579 47.8083 672.837 57.0221Z" fill="#DAF836"/>
<path d="M647.042 74.9033C647.792 74.0718 648.636 73.4852 649.572 73.1437C650.51 72.821 651.452 72.7527 652.397 72.9388C653.343 73.1249 654.207 73.5699 654.991 74.2738C655.784 74.9865 656.319 75.7978 656.593 76.7075C656.878 77.6262 656.903 78.5632 656.67 79.5185C656.428 80.4837 655.931 81.382 655.181 82.2136C654.484 82.9857 653.714 83.5213 652.869 83.8202C652.026 84.138 651.163 84.1786 650.281 83.942L650.734 81.7681C651.325 81.8691 651.867 81.8265 652.358 81.6404C652.84 81.4642 653.26 81.1781 653.617 80.7821C654.028 80.3267 654.3 79.8268 654.432 79.2824C654.564 78.7379 654.535 78.1924 654.346 77.646C654.166 77.1085 653.819 76.608 653.303 76.1447C652.787 75.6814 652.247 75.3845 651.682 75.2538C651.128 75.132 650.586 75.1652 650.057 75.3533C649.528 75.5413 649.058 75.8631 648.647 76.3184C648.29 76.7144 648.049 77.1609 647.924 77.6578C647.79 78.1647 647.804 78.7062 647.967 79.2823L645.847 79.9594C645.529 79.118 645.474 78.2533 645.683 77.3653C645.892 76.4961 646.345 75.6755 647.042 74.9033ZM642.349 80.3136L650.294 87.4502L648.7 89.2172L646.513 87.2526L647.34 87.6194C647.662 88.3381 647.733 89.0746 647.555 89.829C647.369 90.5932 646.932 91.3564 646.244 92.1187L644.473 90.5283C644.564 90.467 644.641 90.4016 644.704 90.3323C644.776 90.2719 644.844 90.2071 644.906 90.1378C645.54 89.4349 645.837 88.6885 645.795 87.8986C645.764 87.1175 645.341 86.3617 644.528 85.6311L640.674 82.1697L642.349 80.3136ZM633.092 90.3643C633.887 89.4832 634.757 88.867 635.703 88.5156C636.649 88.183 637.595 88.1097 638.541 88.2958C639.477 88.4918 640.338 88.9418 641.121 89.6456C641.915 90.3584 642.458 91.1597 642.75 92.0497C643.044 92.9585 643.087 93.8756 642.881 94.8012C642.665 95.7367 642.2 96.6004 641.485 97.3924C640.789 98.1645 639.999 98.7011 639.117 99.002C638.235 99.303 637.33 99.3505 636.403 99.1446C635.475 98.9386 634.594 98.4615 633.761 97.7131C633.682 97.6418 633.597 97.5567 633.507 97.4577C633.408 97.3686 633.318 97.279 633.237 97.1889L639.2 90.5811L640.435 91.6903L635.357 97.3181L635.626 96.243C636.074 96.6628 636.56 96.9296 637.086 97.0434C637.612 97.1573 638.13 97.13 638.641 96.9618C639.143 96.8034 639.595 96.5014 639.997 96.056C640.408 95.6006 640.671 95.1106 640.785 94.5859C640.89 94.0711 640.854 93.5544 640.675 93.0357C640.498 92.5357 640.171 92.072 639.695 91.6443L639.397 91.377C638.921 90.9494 638.401 90.6796 637.838 90.5677C637.274 90.4559 636.715 90.5088 636.159 90.7266C635.603 90.9444 635.093 91.3107 634.629 91.8254C634.227 92.2709 633.935 92.7342 633.752 93.2153C633.569 93.6964 633.502 94.2092 633.549 94.7537L631.506 94.7195C631.411 93.9889 631.495 93.2489 631.758 92.4996C632.022 91.769 632.467 91.0572 633.092 90.3643ZM623.718 100.962L625.325 102.406L625.761 102.609L628.573 105.135C629.119 105.625 629.688 105.84 630.28 105.781C630.882 105.73 631.483 105.374 632.081 104.71C632.483 104.265 632.811 103.762 633.065 103.202C633.31 102.651 633.443 102.116 633.463 101.596L635.473 102.085C635.417 102.805 635.204 103.528 634.836 104.254C634.469 105 633.999 105.689 633.427 106.323C632.391 107.471 631.314 108.108 630.196 108.232C629.079 108.376 627.945 107.931 626.794 106.898L622.137 102.715L623.718 100.962ZM625.865 98.3741C626.401 97.7802 626.969 97.3496 627.569 97.0823C628.179 96.8239 628.775 96.7314 629.355 96.8046C629.936 96.8967 630.455 97.1476 630.912 97.5575C631.358 97.9584 631.666 98.4232 631.835 98.9518C631.996 99.4903 631.962 100.096 631.732 100.768C631.503 101.44 631.026 102.177 630.303 102.979L628.226 105.28L626.991 104.171L628.947 102.003C629.519 101.37 629.799 100.851 629.787 100.446C629.785 100.05 629.636 99.718 629.338 99.4507C629.001 99.1478 628.612 99.0409 628.173 99.13C627.733 99.2191 627.299 99.5012 626.87 99.9764C626.459 100.432 626.197 100.931 626.084 101.475C625.962 102.028 626.033 102.567 626.297 103.09L624.899 102.4C624.594 101.803 624.522 101.156 624.684 100.459C624.837 99.7719 625.23 99.077 625.865 98.3741ZM616.896 108.314C617.682 107.443 618.512 106.971 619.387 106.896C620.272 106.831 621.156 107.195 622.039 107.988L629.166 114.389L627.492 116.245L620.409 109.884C620.032 109.545 619.655 109.377 619.277 109.378C618.89 109.388 618.54 109.567 618.227 109.914C617.852 110.329 617.649 110.774 617.617 111.247L615.824 110.577C615.842 110.199 615.949 109.812 616.145 109.415C616.342 109.018 616.592 108.651 616.896 108.314ZM627.042 110.116L628.53 111.452L623.76 116.738L622.273 115.402L627.042 110.116ZM613.72 112.043L621.665 119.18L619.99 121.036L612.045 113.9L613.72 112.043ZM622.131 121.291C622.443 120.945 622.811 120.756 623.235 120.724C623.65 120.702 624.011 120.83 624.318 121.106C624.636 121.391 624.8 121.736 624.812 122.141C624.825 122.565 624.675 122.95 624.362 123.296C624.05 123.643 623.691 123.831 623.286 123.862C622.882 123.911 622.527 123.798 622.219 123.522C621.892 123.228 621.712 122.869 621.681 122.447C621.659 122.033 621.809 121.648 622.131 121.291ZM607.649 118.771L618.663 122.507L616.921 124.437L607.274 121.068L608.131 120.118L612.406 129.442L610.799 131.223L605.921 120.686L607.649 118.771ZM598.241 128.99C599.036 128.109 599.906 127.492 600.852 127.141C601.798 126.808 602.744 126.735 603.69 126.921C604.626 127.117 605.486 127.567 606.27 128.271C607.064 128.984 607.607 129.785 607.899 130.675C608.193 131.584 608.236 132.501 608.029 133.427C607.814 134.362 607.349 135.226 606.634 136.018C605.938 136.79 605.148 137.326 604.266 137.627C603.384 137.928 602.479 137.976 601.551 137.77C600.624 137.564 599.743 137.087 598.91 136.338C598.831 136.267 598.746 136.182 598.656 136.083C598.556 135.994 598.467 135.904 598.386 135.814L604.348 129.206L605.583 130.316L600.506 135.944L600.775 134.868C601.223 135.288 601.709 135.555 602.235 135.669C602.761 135.783 603.279 135.755 603.79 135.587C604.292 135.429 604.744 135.127 605.146 134.681C605.557 134.226 605.82 133.736 605.934 133.211C606.039 132.697 606.003 132.18 605.824 131.661C605.647 131.161 605.32 130.697 604.844 130.27L604.546 130.002C604.07 129.575 603.55 129.305 602.987 129.193C602.423 129.081 601.864 129.134 601.308 129.352C600.752 129.57 600.242 129.936 599.778 130.451C599.376 130.896 599.083 131.36 598.901 131.841C598.718 132.322 598.651 132.835 598.698 133.379L596.655 133.345C596.56 132.614 596.644 131.874 596.907 131.125C597.171 130.394 597.615 129.683 598.241 128.99Z" fill="#111111"/>
<path d="M162.895 21.3157C170.052 9.54337 185.409 5.78256 197.195 12.9157L262.168 52.236C273.955 59.3692 277.708 74.6951 270.551 86.4675C263.394 98.2398 248.037 102.001 236.251 94.8675L171.278 55.5471C159.491 48.414 155.738 33.0881 162.895 21.3157Z" fill="#DAF836"/>
<path d="M184.722 44.1848C183.74 43.5904 182.883 42.8838 182.152 42.0651C181.428 41.2343 180.937 40.4382 180.679 39.6766L182.59 38.3535C182.853 39.0527 183.276 39.7586 183.858 40.4712C184.441 41.1838 185.121 41.7757 185.9 42.2468C186.559 42.6455 187.135 42.8963 187.63 42.9992C188.124 43.1021 188.54 43.0919 188.877 42.9686C189.222 42.8334 189.488 42.6102 189.677 42.2992C189.91 41.9164 189.958 41.528 189.821 41.134C189.691 40.728 189.444 40.3251 189.081 39.9253C188.737 39.5208 188.332 39.0957 187.866 38.6499C187.411 38.2113 186.962 37.7512 186.517 37.2695C186.092 36.7831 185.734 36.2802 185.444 35.7607C185.173 35.2366 185.03 34.6759 185.017 34.0785C185.003 33.4811 185.2 32.8475 185.607 32.1776C186.022 31.4957 186.58 30.9823 187.281 30.6375C188.001 30.288 188.834 30.1705 189.781 30.285C190.746 30.3947 191.804 30.7975 192.954 31.4934C193.708 31.95 194.399 32.4987 195.025 33.1396C195.651 33.7804 196.131 34.4469 196.463 35.1392L194.625 36.5058C194.266 35.8302 193.834 35.2334 193.329 34.7154C192.832 34.1855 192.308 33.7539 191.757 33.4204C191.111 33.029 190.536 32.7878 190.035 32.6969C189.545 32.6132 189.128 32.639 188.783 32.7742C188.451 32.9167 188.187 33.1495 187.99 33.4725C187.758 33.8553 187.7 34.246 187.818 34.6448C187.956 35.0388 188.2 35.4321 188.551 35.8246C188.914 36.2244 189.325 36.6532 189.784 37.1109C190.25 37.5567 190.7 38.0169 191.132 38.4913C191.577 38.973 191.938 39.4699 192.217 39.9821C192.507 40.5015 192.653 41.0563 192.655 41.6464C192.668 42.2438 192.475 42.8715 192.075 43.5294C191.668 44.1993 191.104 44.709 190.384 45.0585C189.683 45.4033 188.849 45.5209 187.884 45.4111C186.926 45.2894 185.872 44.8806 184.722 44.1848ZM192.392 48.5812L198.218 38.9991L200.463 40.3582L194.638 49.9403L192.392 48.5812ZM200.309 38.105C199.89 37.8513 199.623 37.5095 199.507 37.0796C199.404 36.6569 199.465 36.2602 199.69 35.8894C199.923 35.5065 200.248 35.2693 200.664 35.1775C201.099 35.0811 201.527 35.1597 201.946 35.4134C202.365 35.6671 202.63 35.9993 202.741 36.4099C202.871 36.8159 202.823 37.2043 202.598 37.5752C202.358 37.9699 202.022 38.2252 201.591 38.3408C201.168 38.4446 200.741 38.3659 200.309 38.105ZM201.497 54.263C200.443 53.6251 199.792 52.8631 199.544 51.9768C199.304 51.0786 199.507 50.0972 200.155 49.0325L205.38 40.4372L207.626 41.7963L202.433 50.3377C202.157 50.7923 202.056 51.2141 202.131 51.603C202.218 51.9992 202.471 52.3241 202.89 52.5778C203.393 52.8823 203.892 53.0044 204.387 52.9442L204.045 54.9217C203.651 54.9776 203.229 54.9434 202.781 54.8191C202.332 54.6948 201.904 54.5094 201.497 54.263ZM201.377 43.464L202.468 41.6696L208.864 45.5403L207.773 47.3347L201.377 43.464ZM209.962 59.3863C208.956 58.7774 208.185 58.0244 207.649 57.1273C207.133 56.2255 206.878 55.2697 206.886 54.2598C206.894 53.2499 207.185 52.2724 207.759 51.3274C208.341 50.3703 209.075 49.6611 209.962 49.1995C210.856 48.726 211.82 48.5155 212.853 48.568C213.898 48.6277 214.924 48.962 215.93 49.5708C216.864 50.1362 217.568 50.8242 218.042 51.6346C218.535 52.4404 218.746 53.3205 218.673 54.2749L216.338 54.236C216.326 53.6074 216.177 53.0586 215.888 52.5896C215.612 52.1278 215.234 51.752 214.755 51.462C214.204 51.1286 213.635 50.9474 213.046 50.9185C212.457 50.8895 211.899 51.0263 211.371 51.3286C210.851 51.619 210.401 52.0753 210.023 52.6973C209.645 53.3194 209.443 53.9338 209.418 54.5406C209.401 55.1355 209.541 55.6866 209.839 56.1941C210.136 56.7015 210.561 57.1219 211.112 57.4554C211.591 57.7453 212.099 57.9059 212.638 57.937C213.188 57.9753 213.745 57.8542 214.308 57.5736L215.422 59.6222C214.615 60.1153 213.731 60.3418 212.773 60.3016C211.833 60.2568 210.897 59.9517 209.962 59.3863ZM220.548 65.7924C219.566 65.1981 218.819 64.4596 218.307 63.577C217.802 62.6824 217.553 61.7302 217.561 60.7203C217.569 59.7104 217.86 58.7329 218.435 57.7879C219.016 56.8309 219.751 56.1216 220.638 55.6601C221.532 55.1866 222.489 54.9724 223.51 55.0176C224.531 55.0628 225.533 55.3826 226.515 55.977C227.509 56.5786 228.262 57.3208 228.774 58.2034C229.298 59.0932 229.554 60.0335 229.542 61.0241C229.541 62.0221 229.246 63.0055 228.657 63.9745C228.083 64.9196 227.349 65.6288 226.454 66.1023C225.572 66.5831 224.611 66.8032 223.571 66.7627C222.55 66.7175 221.542 66.3941 220.548 65.7924ZM221.715 63.8724C222.266 64.2059 222.83 64.3834 223.407 64.4051C223.983 64.4268 224.53 64.2828 225.045 63.9732C225.573 63.6709 226.023 63.2146 226.394 62.6045C226.772 61.9825 226.97 61.374 226.987 60.7792C227.024 60.1796 226.9 59.6297 226.614 59.1295C226.328 58.6293 225.916 58.2161 225.377 57.89C224.826 57.5565 224.262 57.379 223.685 57.3573C223.121 57.3428 222.574 57.4868 222.047 57.7892C221.526 58.0796 221.077 58.5358 220.698 59.1579C220.327 59.768 220.13 60.3764 220.105 60.9832C220.08 61.59 220.204 62.1399 220.478 62.6328C220.764 63.1331 221.176 63.5462 221.715 63.8724ZM246.269 67.9314C247.035 68.3953 247.621 68.9544 248.026 69.6087C248.443 70.2702 248.63 71.0134 248.588 71.8384C248.552 72.6515 248.24 73.5425 247.651 74.5115L244.312 80.0024L242.067 78.6433L245.23 73.4395C245.747 72.5902 245.946 71.8438 245.83 71.2004C245.713 70.557 245.307 70.0251 244.613 69.6047C244.121 69.3075 243.619 69.1506 243.105 69.1339C242.602 69.1246 242.116 69.264 241.646 69.5522C241.188 69.8477 240.762 70.3184 240.37 70.9644L237.413 75.8273L235.168 74.4682L238.331 69.2644C238.848 68.415 239.047 67.6686 238.931 67.0252C238.814 66.3818 238.408 65.8499 237.714 65.4295C237.222 65.1323 236.72 64.9754 236.206 64.9588C235.703 64.9494 235.217 65.0888 234.747 65.3771C234.289 65.6725 233.863 66.1433 233.471 66.7893L230.514 71.6521L228.269 70.293L234.094 60.7109L236.232 62.0047L234.683 64.5528L234.764 63.5708C235.465 63.1445 236.22 62.9546 237.027 63.0013C237.846 63.0552 238.651 63.3214 239.442 63.7998C240.34 64.3434 240.984 65.0359 241.374 65.8772C241.775 66.7257 241.811 67.6638 241.481 68.6915L240.786 67.8537C241.534 67.3244 242.398 67.0619 243.379 67.0661C244.359 67.0704 245.323 67.3588 246.269 67.9314Z" fill="#111111"/>
<path d="M915.4 63.1485C923.234 51.813 938.788 48.955 950.14 56.7651L1006.93 95.835C1018.28 103.645 1021.13 119.166 1013.3 130.501C1005.46 141.837 989.911 144.695 978.559 136.885L921.769 97.8147C910.417 90.0047 907.565 74.4841 915.4 63.1485Z" fill="#DAF836"/>
<path d="M932.874 85.1201C931.905 84.4535 931.179 83.6568 930.696 82.73C930.233 81.7996 930.035 80.8306 930.102 79.8229C930.168 78.8153 930.516 77.8565 931.145 76.9467C931.782 76.0253 932.556 75.3601 933.469 74.9512C934.389 74.5307 935.363 74.3769 936.391 74.4895C937.431 74.6102 938.436 75.0038 939.405 75.6703C940.304 76.2893 940.967 77.0171 941.393 77.8538C941.838 78.6869 941.997 79.5778 941.869 80.5263L939.539 80.3511C939.565 79.723 939.447 79.1664 939.187 78.6814C938.938 78.2043 938.583 77.807 938.122 77.4896C937.591 77.1246 937.033 76.9105 936.447 76.8472C935.861 76.7839 935.296 76.8878 934.751 77.1588C934.214 77.4183 933.739 77.8475 933.325 78.4464C932.911 79.0453 932.674 79.6469 932.614 80.2512C932.561 80.8439 932.669 81.4023 932.937 81.9262C933.204 82.4502 933.603 82.8947 934.134 83.2597C934.595 83.5771 935.094 83.767 935.629 83.8295C936.176 83.8999 936.739 83.8115 937.318 83.5643L938.311 85.6744C937.475 86.1195 936.581 86.294 935.626 86.1979C934.691 86.0983 933.773 85.739 932.874 85.1201ZM943.067 92.1331C942.121 91.4824 941.419 90.7016 940.959 89.7906C940.508 88.8682 940.315 87.9031 940.382 86.8954C940.449 85.8878 940.796 84.929 941.425 84.0192C942.062 83.0978 942.836 82.4327 943.749 82.0237C944.669 81.6033 945.638 81.4454 946.654 81.5502C947.671 81.6549 948.652 82.0326 949.598 82.6833C950.556 83.3419 951.264 84.1267 951.724 85.0377C952.195 85.9565 952.395 86.9101 952.325 87.8983C952.266 88.8944 951.914 89.8589 951.269 90.7918C950.641 91.7017 949.866 92.3668 948.946 92.7873C948.037 93.2157 947.065 93.3793 946.028 93.2781C945.012 93.1734 944.025 92.7917 943.067 92.1331ZM944.345 90.2846C944.875 90.6496 945.428 90.8598 946.002 90.9151C946.577 90.9704 947.13 90.8586 947.664 90.5797C948.208 90.3086 948.684 89.8795 949.09 89.2921C949.503 88.6932 949.737 88.0974 949.789 87.5046C949.861 86.9083 949.769 86.3521 949.512 85.8361C949.256 85.3201 948.869 84.8835 948.35 84.5264C947.819 84.1614 947.267 83.9512 946.692 83.8959C946.13 83.8485 945.576 83.9603 945.031 84.2314C944.494 84.4909 944.019 84.92 943.605 85.5189C943.199 86.1063 942.966 86.7021 942.906 87.3064C942.846 87.9107 942.938 88.4669 943.182 88.975C943.438 89.491 943.826 89.9275 944.345 90.2846ZM968.62 95.7701C969.359 96.278 969.911 96.8703 970.277 97.547C970.655 98.2317 970.798 98.9846 970.707 99.8057C970.624 100.615 970.26 101.486 969.615 102.419L965.962 107.706L963.799 106.218L967.262 101.208C967.827 100.39 968.07 99.6568 967.991 99.0077C967.912 98.3586 967.538 97.804 966.869 97.3437C966.396 97.0184 965.904 96.8324 965.391 96.7858C964.89 96.7471 964.397 96.8579 963.911 97.1182C963.436 97.3864 962.984 97.8314 962.554 98.4533L959.318 103.135L957.156 101.647L960.618 96.6373C961.183 95.8196 961.426 95.0862 961.347 94.4371C961.268 93.788 960.895 93.2333 960.226 92.7731C959.753 92.4477 959.26 92.2618 958.748 92.2151C958.247 92.1765 957.753 92.2873 957.267 92.5475C956.792 92.8157 956.34 93.2608 955.91 93.8827L952.675 98.5644L950.512 97.0765L956.888 87.8514L958.947 89.2678L957.251 91.7209L957.389 90.7454C958.115 90.3608 958.879 90.2153 959.682 90.309C960.497 90.4107 961.285 90.7234 962.046 91.2471C962.911 91.8423 963.513 92.5711 963.853 93.4337C964.205 94.3042 964.186 95.2427 963.796 96.2493L963.152 95.3724C963.929 94.8877 964.807 94.6761 965.786 94.7376C966.764 94.7991 967.709 95.1433 968.62 95.7701ZM969.088 109.856L975.464 100.631L977.626 102.119L971.251 111.344L969.088 109.856ZM977.604 99.8608C977.201 99.583 976.954 99.2262 976.864 98.7904C976.785 98.3624 976.869 97.9699 977.116 97.6129C977.37 97.2443 977.708 97.0264 978.129 96.9591C978.57 96.8883 978.992 96.9917 979.395 97.2694C979.799 97.5472 980.044 97.8942 980.131 98.3107C980.237 98.7235 980.167 99.1085 979.92 99.4655C979.657 99.8456 979.307 100.081 978.871 100.171C978.442 100.25 978.02 100.146 977.604 99.8608ZM978.607 116.583C977.638 115.917 976.912 115.12 976.429 114.193C975.966 113.263 975.768 112.294 975.835 111.286C975.902 110.279 976.249 109.32 976.878 108.41C977.515 107.489 978.29 106.824 979.202 106.415C980.122 105.994 981.096 105.84 982.125 105.953C983.164 106.074 984.169 106.467 985.138 107.134C986.037 107.753 986.7 108.48 987.126 109.317C987.571 110.15 987.73 111.041 987.602 111.99L985.272 111.814C985.298 111.186 985.181 110.63 984.92 110.145C984.671 109.668 984.316 109.27 983.855 108.953C983.324 108.588 982.766 108.374 982.18 108.311C981.594 108.247 981.029 108.351 980.484 108.622C979.947 108.882 979.472 109.311 979.058 109.91C978.644 110.509 978.407 111.11 978.347 111.715C978.295 112.307 978.402 112.866 978.67 113.39C978.937 113.914 979.336 114.358 979.867 114.723C980.328 115.04 980.827 115.23 981.362 115.293C981.909 115.363 982.472 115.275 983.052 115.028L984.044 117.138C983.209 117.583 982.314 117.757 981.359 117.661C980.424 117.562 979.506 117.202 978.607 116.583ZM987.638 122.797C986.865 122.265 986.189 121.655 985.609 120.968C985.049 120.276 984.661 119.644 984.444 119.07L986.409 118C986.641 118.551 986.986 119.111 987.443 119.68C987.901 120.25 988.418 120.733 988.994 121.13C989.675 121.598 990.229 121.843 990.656 121.865C991.095 121.895 991.421 121.755 991.636 121.444C991.812 121.19 991.839 120.929 991.719 120.659C991.607 120.378 991.407 120.088 991.121 119.789C990.834 119.49 990.503 119.168 990.128 118.825C989.764 118.49 989.406 118.133 989.054 117.756C988.722 117.374 988.453 116.976 988.246 116.562C988.046 116.136 987.954 115.69 987.97 115.225C987.985 114.76 988.176 114.262 988.542 113.732C988.948 113.145 989.465 112.753 990.094 112.557C990.731 112.35 991.429 112.337 992.188 112.519C992.967 112.698 993.771 113.073 994.601 113.645C995.224 114.073 995.805 114.575 996.344 115.149C996.883 115.724 997.272 116.281 997.512 116.82L995.548 117.89C995.293 117.323 994.972 116.839 994.586 116.438C994.219 116.032 993.817 115.679 993.378 115.377C992.721 114.925 992.163 114.686 991.705 114.659C991.258 114.641 990.931 114.781 990.724 115.081C990.533 115.357 990.494 115.636 990.606 115.917C990.718 116.198 990.913 116.494 991.192 116.805C991.471 117.115 991.792 117.439 992.156 117.774C992.539 118.106 992.897 118.462 993.229 118.843C993.561 119.225 993.831 119.623 994.038 120.037C994.265 120.448 994.37 120.886 994.355 121.351C994.34 121.817 994.153 122.308 993.795 122.827C993.397 123.403 992.878 123.785 992.237 123.973C991.608 124.169 990.899 124.173 990.109 123.987C989.327 123.789 988.503 123.392 987.638 122.797Z" fill="#111111"/>
</svg>
